<svg width="320" height="217" viewBox="0 0 320 217" fill="none" xmlns="http://www.w3.org/2000/svg">
<path d="M217.681 44.5158C217.672 44.4968 217.658 44.4806 217.639 44.4691C217.621 44.4577 217.599 44.4515 217.577 44.4515C217.554 44.4515 217.532 44.4577 217.514 44.4691C217.495 44.4806 217.481 44.4968 217.473 44.5158C217.473 45.421 216.033 45.9758 216.433 46.9978C216.609 47.4358 217.265 47.7424 217.633 47.3044C217.646 47.2828 217.653 47.2588 217.654 47.2342C217.656 47.2095 217.651 47.185 217.64 47.1624C217.629 47.1398 217.613 47.1198 217.592 47.1039C217.571 47.088 217.547 47.0767 217.521 47.0708H217.345C216.577 47.0708 216.577 46.5744 217.441 45.6108C217.572 45.4581 217.662 45.2795 217.703 45.0893C217.745 44.8992 217.737 44.7027 217.681 44.5158ZM221.073 43.0412C221.169 43.2748 221.585 43.2018 221.633 42.9682C221.632 42.4754 221.562 41.9847 221.425 41.5082C221.425 41.454 221.401 41.402 221.359 41.3637C221.317 41.3253 221.26 41.3038 221.201 41.3038C221.141 41.3038 221.084 41.3253 221.042 41.3637C221 41.402 220.977 41.454 220.977 41.5082C220.872 42.0187 220.905 42.5449 221.073 43.0412ZM213.777 41.917C213.777 42.3696 213.777 43.2602 214.273 43.5376C214.296 43.5495 214.323 43.5563 214.35 43.5575C214.377 43.5586 214.403 43.554 214.428 43.5442C214.453 43.5343 214.475 43.5193 214.492 43.5005C214.51 43.4816 214.522 43.4593 214.529 43.4354C214.45 42.9417 214.332 42.4538 214.177 41.9754C214.145 41.698 213.777 41.6834 213.777 41.917ZM212.241 40.1504C212.211 40.1949 212.202 40.2484 212.215 40.2991C212.229 40.3497 212.264 40.3934 212.313 40.4205C212.361 40.4476 212.42 40.4559 212.476 40.4436C212.531 40.4313 212.579 40.3993 212.609 40.3548C212.849 40.0628 214.209 39.2014 214.369 38.8948C214.389 38.8718 214.403 38.8439 214.407 38.8143C214.412 38.7847 214.407 38.7545 214.394 38.7272C214.381 38.6999 214.359 38.6765 214.332 38.6597C214.305 38.6429 214.273 38.6333 214.241 38.632C213.361 38.6174 212.593 39.5226 212.241 40.1504ZM221.233 38.2378C222.033 38.3254 222.449 38.9094 222.833 39.4642C222.859 39.5066 222.901 39.5397 222.95 39.5581C223 39.5765 223.055 39.5792 223.107 39.5658C223.158 39.5523 223.203 39.5235 223.235 39.4839C223.266 39.4444 223.283 39.3963 223.281 39.3474C223.281 38.3984 222.145 37.8144 221.201 37.7998C220.913 37.7852 220.929 38.2086 221.233 38.2378ZM237.233 87.6004C240.673 87.4106 244.049 86.52 247.489 86.2426C247.761 86.2426 247.761 85.8192 247.489 85.8484C244.017 86.128 240.579 86.6899 237.217 87.5274L237.233 87.6004ZM220.673 88.2282C220.929 88.2282 220.817 87.834 220.561 87.8632C216.993 88.3742 213.409 88.9582 209.857 89.5714C209.761 89.5714 209.857 89.732 209.857 89.732C213.489 89.2794 217.105 88.7976 220.673 88.2282ZM167.905 171.448L142.401 155.242L137.569 162.586L171.537 183.084L199.985 135.036L191.793 131.532L167.905 171.448Z" fill="black" fill-opacity="0.41"/>
<path d="M211.089 113.997C210.657 113.004 210.449 113.136 209.297 112.917C207.393 112.537 205.473 112.201 203.553 111.851C197.601 110.756 191.761 108.931 185.953 107.471C180.08 106.033 174.34 104.178 168.785 101.923C167.185 101.28 165.713 100.653 164.241 99.8934C163.361 99.4262 161.537 97.9662 160.561 98.0246C160.001 98.0246 160.273 98.0246 159.633 98.521C158.433 99.543 157.265 100.55 156.001 101.441C151.057 104.956 145.795 108.081 140.273 110.785C131.781 115.483 122.938 119.63 113.809 123.195C113.745 123.211 113.689 123.245 113.649 123.292C113.608 123.34 113.586 123.398 113.585 123.458C112.765 132.126 113.654 140.859 116.209 149.241C118.594 157.694 121.461 166.028 124.801 174.207C130.753 189.056 139.633 202.853 152.769 213.233C166.481 224.081 178.369 225.979 178.481 225.877C183.291 222.535 187.7 218.737 191.633 214.547C200.747 205.271 207.848 194.5 212.561 182.807C215.434 175.522 217.236 167.923 217.921 160.206C218.817 149.986 217.217 139.897 215.281 129.78C214.507 124.397 213.101 119.106 211.089 113.997ZM215.313 172.397C213.146 182.012 209.039 191.176 203.201 199.422C188.497 219.19 178.433 225.307 178.273 225.41C163.415 220.815 150.444 212.198 141.089 200.706C136.67 195.404 132.873 189.694 129.761 183.668C126.331 176.641 123.386 169.424 120.945 162.06C118.288 155.032 116.229 147.827 114.785 140.511C114.084 136.622 113.757 132.684 113.809 128.743C113.809 127.809 114.001 123.75 113.985 123.764C114.145 123.516 125.905 118.932 130.865 116.362C137.601 112.8 144.577 109.5 151.041 105.471C153.872 103.762 156.547 101.849 159.041 99.7474C159.937 98.9882 160.289 98.594 161.505 99.0466C162.353 99.3532 167.377 101.967 169.137 102.624C176.206 105.343 183.491 107.569 190.929 109.281C194.817 110.289 198.705 111.442 202.657 112.201C205.16 112.558 207.639 113.045 210.081 113.661C210.993 114.187 212.817 120.83 213.281 122.582C214.145 126.203 214.785 129.882 215.473 133.503C217.889 146.526 218.545 159.418 215.313 172.426V172.397ZM105.041 53.9326C105.017 53.9569 105.001 53.9869 104.994 54.0192C104.988 54.0514 104.992 54.0846 105.005 54.115C105.018 54.1454 105.041 54.1718 105.07 54.1912C105.099 54.2105 105.133 54.2221 105.169 54.2246C105.461 54.191 105.734 54.0695 105.942 53.8792C106.151 53.6888 106.284 53.4405 106.321 53.1734C106.321 52.9252 105.345 51.8302 105.185 51.3338C105.175 51.3081 105.157 51.2857 105.132 51.2699C105.108 51.2541 105.079 51.2456 105.049 51.2456C105.019 51.2456 104.99 51.2541 104.965 51.2699C104.941 51.2857 104.923 51.3081 104.913 51.3338C104.769 51.7572 105.857 52.9544 105.793 53.2756C105.729 53.5968 105.281 53.7136 105.041 53.9326ZM107.985 49.2022C107.833 49.6758 107.768 50.1692 107.793 50.6622C107.793 51.0856 108.513 51.0856 108.529 50.6622C108.601 50.1697 108.541 49.6686 108.353 49.2022C108.335 49.1717 108.309 49.1461 108.276 49.1282C108.244 49.1104 108.207 49.1009 108.169 49.1009C108.131 49.1009 108.094 49.1104 108.061 49.1282C108.029 49.1461 108.002 49.1717 107.985 49.2022ZM101.473 49.1584C101.324 49.6356 101.324 50.1412 101.473 50.6184C101.473 50.925 102.113 50.8812 102.081 50.6184C102.049 50.3556 101.969 49.7132 101.905 49.2606C101.92 49.2083 101.911 49.1528 101.881 49.1063C101.851 49.0597 101.802 49.026 101.745 49.0124C101.687 48.9989 101.627 49.0066 101.576 49.034C101.525 49.0614 101.488 49.1061 101.473 49.1584ZM100.113 48.7496C100.369 48.443 101.713 47.4794 101.905 47.202C101.937 47.1731 101.959 47.1353 101.966 47.0942C101.973 47.0532 101.964 47.0112 101.943 46.9747C101.921 46.9383 101.887 46.9094 101.845 46.8924C101.804 46.8754 101.757 46.8714 101.713 46.8808C100.859 47.1673 100.145 47.7209 99.6968 48.443C99.5208 48.6766 99.9208 48.954 100.113 48.7496ZM107.665 47.056C108.246 47.323 108.785 47.662 109.265 48.0634C109.296 48.0926 109.336 48.1126 109.38 48.1207C109.424 48.1288 109.47 48.1248 109.511 48.1091C109.552 48.0934 109.587 48.0667 109.612 48.0325C109.637 47.9984 109.649 47.9583 109.649 47.9174C109.649 47.5378 108.049 46.691 107.617 46.7202C107.578 46.7349 107.545 46.761 107.524 46.7944C107.502 46.8278 107.494 46.8667 107.499 46.905C107.505 46.9433 107.524 46.9788 107.554 47.0062C107.584 47.0335 107.623 47.051 107.665 47.056ZM100.209 56.254H100.065C100.065 57.1884 102.337 59.0864 105.361 57.9038C105.505 57.9038 105.361 57.6264 105.249 57.6702C104.36 58.0077 103.369 58.0509 102.449 57.7922C101.528 57.5336 100.736 56.9895 100.209 56.254ZM38.9128 179.58C33.6168 180.062 28.1928 179.303 22.9128 179.901C22.9128 179.901 22.8008 179.989 22.8008 180.033C22.382 184.014 22.4679 188.027 23.0568 191.99C23.06 192.026 23.0731 192.061 23.0948 192.092C23.1165 192.122 23.1461 192.147 23.181 192.164C23.2159 192.182 23.255 192.191 23.2947 192.191C23.3345 192.191 23.3737 192.182 23.4088 192.165C28.5608 192.414 33.9528 192.253 39.1208 192.034C39.2648 192.034 39.3288 191.742 39.3288 191.713C39.4837 187.726 39.3982 183.734 39.0728 179.755C39.075 179.734 39.0726 179.713 39.0657 179.693C39.0588 179.672 39.0476 179.654 39.0328 179.637C39.0179 179.621 38.9996 179.608 38.979 179.598C38.9584 179.588 38.9359 179.582 38.9128 179.58ZM23.3928 183.8C23.3928 182.573 23.3928 181.347 23.2968 180.106C28.3613 180.343 33.4366 180.309 38.4968 180.004C38.3713 181.426 38.3339 182.855 38.3848 184.281C33.3998 183.888 28.3951 183.742 23.3928 183.843V183.8ZM23.7288 191.669C23.4888 189.231 23.4568 186.807 23.4248 184.369C25.7928 184.369 28.2248 184.457 30.5288 184.515C30.3363 186.81 30.4816 189.118 30.9608 191.377C28.5439 191.283 26.1227 191.396 23.7288 191.713V191.669ZM31.7288 191.421C31.7288 190.121 31.3608 185.479 31.1528 184.471C33.5368 184.471 38.3688 184.836 38.3848 184.836C38.3848 187.055 38.6248 189.289 38.6728 191.479C36.4488 191.625 34.0968 191.523 31.7768 191.465L31.7288 191.421Z" fill="black" fill-opacity="0.41"/>
<path d="M310.912 189.362C310.582 187.352 309.496 185.509 307.84 184.15C305.84 182.763 303.184 182.996 300.832 183.069C297.312 183.172 290.064 183.799 290.064 183.785C288.848 180.675 287.776 177.492 286.368 174.47C285.401 171.897 283.383 169.764 280.736 168.513C278.144 167.491 265.984 168.28 260.352 168.747C264.592 155.957 264.816 138.277 264.816 134.86C265.403 134.499 265.909 134.038 266.304 133.502C267.568 131.59 266.688 128.641 266.496 126.582C265.952 120.99 265.616 115.311 264.752 109.748C266.387 108.231 267.816 106.54 269.008 104.711C272.88 98.769 272.896 92.1552 271.104 85.5706C269.312 78.986 264.256 73.8906 258.576 69.423C252.934 64.7474 245.924 61.6685 238.4 60.5608C237.626 59.3267 236.732 58.1589 235.728 57.0714L234.32 57.816C234.32 55.845 233.424 47.4062 233.424 47.4062C234.736 47.085 237.328 43.6248 237.728 41.0844C237.92 38.6093 237.445 36.1289 236.347 33.8592C235.248 31.5894 233.558 29.599 231.424 28.0612C225.504 23.6812 213.824 25.7398 211.248 27.521C210.541 28.0307 209.723 28.3982 208.849 28.5995C207.975 28.8007 207.064 28.8313 206.176 28.689C206.176 28.689 208.32 30.6454 207.008 31.0104C205.696 31.3754 204.8 29.3898 204.8 29.3898C204.496 33.361 206.24 34.3538 206.24 34.3538C211.984 39.9894 216.32 35.478 216.32 35.478C216.32 35.478 216.912 33.726 223.088 34.9962C223.883 35.0998 224.646 35.3557 225.325 35.7472C226.004 36.1386 226.585 36.6568 227.029 37.2676C227.474 37.8785 227.771 38.5681 227.903 39.2914C228.034 40.0146 227.997 40.755 227.792 41.464L228.576 41.756C228.871 41.3651 229.203 40.9987 229.568 40.661C233.056 38.4564 233.952 41.7998 233.952 41.7998C234.656 44.5154 230.992 45.3038 230.992 45.3038C231.088 49.0706 230.336 49.6838 230.336 49.6838C227.36 52.9396 224.336 49.4064 224.336 49.4064C223.668 48.7041 222.826 48.1576 221.88 47.8122C220.934 47.4668 219.911 47.3327 218.896 47.4208C215.12 47.5668 215.696 48.6618 214.096 49.7276C213.088 50.3992 212.064 49.64 211.44 49.0122C211.44 47.7712 210.896 42.9094 210.592 41.7122V37.4636C209.472 37.1649 208.449 36.6182 207.616 35.8722C206.016 40.2522 209.424 41.5954 210.368 41.902C210.48 43.2306 209.952 53.3484 211.968 57.1444C212.507 58.1999 213.324 59.1174 214.346 59.8153C215.368 60.5133 216.562 60.97 217.824 61.1448C217.648 62.0062 217.472 63.437 217.44 63.8312C213.504 64.3568 210.32 66.6636 207.264 68.839C203.597 71.3955 200.196 74.2546 197.104 77.38C191.533 82.8968 187.909 89.8152 186.704 97.236L181.216 95.776C181.295 95.4551 181.333 95.1268 181.328 94.7978C181.323 94.2103 181.124 93.6378 180.757 93.1552C180.39 92.6725 179.872 92.3021 179.271 92.0924C178.669 91.8826 178.012 91.8433 177.386 91.9795C176.76 92.1158 176.193 92.4212 175.76 92.856C175.445 93.2553 175.216 93.7064 175.088 94.1846C175.088 94.1846 165.904 90.4762 161.312 88.6804C160.337 88.1044 159.152 87.9049 158.016 88.1256C156.259 88.9839 154.699 90.1439 153.424 91.542V91.4544C151.824 89.6586 148.304 89.8046 147.792 92.418C147.693 93.1807 147.825 93.9536 148.176 94.6518C147.376 95.192 146.576 95.7614 145.648 96.3162C143.408 91.2646 141.28 85.994 137.648 81.7162C134.63 78.0535 130.989 74.8547 126.864 72.2408C121.206 68.562 114.385 66.6703 107.44 66.8534L107.024 65.9336C107.024 65.335 106.896 64.7364 106.816 64.1524C112.016 64.5466 114.72 57.4072 114.72 57.4072C114.903 58.6405 114.766 59.8958 114.32 61.0718C114.32 61.0718 119.6 54.1514 116.48 42.6612C113.36 31.171 102.08 33.58 102.08 33.58C88.6881 26.499 81.7281 39.1864 81.7281 39.1864C73.5681 57.2028 88.1281 64.7364 88.1281 64.7364C86.7201 63.7728 87.1681 61.612 87.1681 61.612C87.8986 62.5537 88.8546 63.331 89.9635 63.8851C91.0725 64.4391 92.3052 64.7552 93.5681 64.8094C93.5681 65.262 93.3921 65.7584 93.3441 66.2694L93.0081 67.3498C79.0721 71.832 66.8001 80.081 62.0161 93.3086C59.7441 99.572 59.6001 106.084 63.0561 112.026C65.9597 116.849 70.7465 120.497 76.4641 122.246C76.395 123.101 76.5422 123.959 76.8946 124.754C77.2469 125.549 77.7949 126.259 78.4961 126.83C77.4081 127.283 74.6081 129.122 73.0081 136.422C72.3521 139.43 71.1361 144.686 69.8081 150.395C62.8161 145.401 52.5441 137.78 52.3841 137.897C37.3761 148.92 8.08014 172.163 8.08014 172.192C8.04825 172.216 8.02484 172.248 8.01287 172.284C8.0009 172.32 8.00092 172.359 8.01292 172.395C8.02492 172.431 8.04836 172.462 8.08027 172.486C8.11218 172.51 8.15112 172.525 8.19214 172.528C10.6081 172.718 12.9921 172.849 15.4721 172.922C15.4721 186.486 16.7201 213.802 16.7841 213.802H11.2001C11.0883 216.093 11.1846 218.388 11.4881 220.664C22.5281 220.664 64.1121 220.402 78.9121 220.139C79.3921 226.577 79.9841 234.315 79.9841 234.315C79.0081 234.666 74.8161 236.943 73.5041 237.469C71.7441 238.17 70.3041 239.031 70.5281 240.973C70.6029 241.05 70.696 241.11 70.8001 241.148C76.567 241.543 82.3643 241.337 88.0801 240.535C88.2068 240.497 88.3146 240.42 88.3841 240.316C88.8402 238.841 88.8402 237.28 88.3841 235.805L95.5361 208.649C96.5921 204.809 100.48 189.493 101.44 185.712C105.472 185.69 109.499 185.465 113.504 185.04C115.104 189.508 119.584 206.59 121.376 210.24C123.168 213.89 123.36 215.394 123.392 215.408C127.952 216.576 131.728 218.051 137.2 213.948C137.249 213.904 137.315 213.879 137.384 213.879C137.453 213.879 137.519 213.904 137.568 213.948C137.617 213.993 137.644 214.053 137.644 214.116C137.644 214.179 137.617 214.24 137.568 214.284C134.272 217.511 127.312 217.934 123.344 215.511L130.304 234.184C129.867 236.051 129.867 237.982 130.304 239.849C130.304 239.966 140.768 239.849 145.904 239.717C146.064 239.717 146.192 239.425 146.192 239.396C146.239 238.67 146.045 237.948 145.637 237.324C145.23 236.699 144.626 236.201 143.904 235.892C142.976 235.41 138.8 233.585 137.68 233.074V211.408C139.678 213.808 141.876 216.063 144.256 218.153C149.728 222.689 155.616 226.787 161.856 230.403C167.456 233.834 173.36 237.235 179.872 239.002C180 239.002 197.088 228.986 206.16 216.649V222.27C206.882 222.949 207.778 223.451 208.768 223.73C208.897 224.942 209.1 226.146 209.376 227.337C207.04 228.797 203.44 231.016 202.832 233.673C202.756 233.917 202.737 234.173 202.775 234.425C202.814 234.676 202.91 234.917 203.056 235.133C202.224 238.768 211.2 238.053 213.12 237.819C215.616 237.513 224.32 237.06 222.848 232.987C222.848 232.987 223.312 227.877 221.744 226.986C221.888 225.807 221.888 224.617 221.744 223.438C223.984 223 225.552 222.562 225.552 222.562L227.536 177.302C231.232 194.676 246.272 223.906 246.272 223.906C247.427 224.059 248.593 224.137 249.76 224.139C250.212 225.148 250.747 226.124 251.36 227.059C250.128 228.125 243.824 233.615 247.216 235.498C247.952 239.09 254.144 237.089 256.432 236.199C257.872 235.644 266.608 231.819 263.84 229.731C263.84 229.731 261.776 225.19 261.072 224.942C260.935 223.748 260.645 222.572 260.208 221.438C261.034 220.965 261.801 220.412 262.496 219.788C262.496 219.788 260.896 211.364 259.296 202.896C267.681 203.117 276.071 202.662 284.368 201.538C284.48 201.538 284.56 201.392 284.576 201.29C284.576 199.334 284.72 197.261 286.384 195.83C287.873 194.723 289.656 193.992 291.552 193.713C296.608 192.72 298.784 195.815 300.064 199.713C300.064 199.816 307.984 199.378 311.824 199.509C312.032 199.509 312.112 199.1 312.112 199.056C312.09 195.795 311.687 192.546 310.912 189.362ZM217.6 34.5874C215.456 35.7116 212.72 34.0326 212.064 32.12C212.064 32.0178 212.192 31.9448 212.256 32.047C212.768 32.8938 214.816 35.0546 217.472 34.164C217.6 34.091 217.776 34.4852 217.6 34.5874ZM255.792 68.0214C261.392 71.905 267.28 76.869 269.712 83.0302C272.144 89.1914 272.816 96.8564 269.472 102.945C266.237 108.448 261.126 112.84 254.912 115.457C247.799 118.442 240.054 119.968 232.224 119.924C232.183 119.91 232.137 119.91 232.096 119.924C230.6 117.154 228.844 114.506 226.848 112.011C235.827 106.781 245.104 101.99 254.64 97.6594C254.678 97.6389 254.707 97.6081 254.724 97.5714C254.742 97.5347 254.746 97.494 254.736 97.455C253.76 94.4499 253.111 91.364 252.8 88.2424C252.8 88.111 252.56 88.0964 252.56 88.2424C252.635 90.738 252.999 93.2193 253.648 95.6446C253.968 96.9002 254.736 97.1046 253.552 97.7324C251.248 98.8274 236.224 106.113 231.152 108.945C230.928 106.463 230.176 94.9292 230.208 94.9C232.4 91.5566 240.704 77.7742 243.008 74.46C243.026 74.4437 243.04 74.4244 243.05 74.4031C243.06 74.3818 243.065 74.359 243.065 74.3359C243.065 74.3129 243.06 74.29 243.05 74.2687C243.04 74.2474 243.026 74.2281 243.008 74.2118C242.038 72.7693 240.871 71.4448 239.536 70.2698C241.319 69.0023 243.251 67.92 245.296 67.0432C245.472 67.0432 245.68 66.9118 245.552 66.7366C244.243 64.8143 242.708 63.0275 240.976 61.4076C246.349 62.6515 251.379 64.9041 255.744 68.0214H255.792ZM223.152 118.742C220.128 121.209 219.952 119.793 219.872 119.34C220.994 118.796 222.033 118.119 222.96 117.326C222.96 117.326 222.864 117.092 222.784 117.15C222.128 117.559 218.464 120.377 218.464 118.698C219.655 117.35 221.032 116.148 222.56 115.121C222.336 114.727 221.536 115.121 221.328 112.683C222.336 113.379 223.568 113.754 224.832 113.749C225.59 113.784 226.343 113.611 226.992 113.252C227.576 114.361 228.238 115.434 228.976 116.464C227.968 117.348 226.9 118.173 225.776 118.932C224.768 119.574 222.576 121.165 221.296 120.392C222.034 119.947 222.74 119.46 223.408 118.932C223.44 118.844 223.2 118.669 223.104 118.742H223.152ZM240.56 61.32C241.152 62.2106 244.368 65.8314 245.184 66.8534C242.972 67.5092 240.986 68.682 239.424 70.2552L242.784 74.2702C238.528 80.9424 233.52 87.4102 230.192 94.5788C231.356 83.3246 233.889 72.2236 237.744 61.4806L238.32 60.9258L240.56 61.32ZM235.648 57.4072C236.304 58.546 237.248 59.5096 237.936 60.6776C235.792 62.7216 233.424 64.5028 231.168 66.5176C230.322 64.7435 229.248 63.0674 227.968 61.5244C230.696 60.4436 233.274 59.0713 235.648 57.4364V57.4072ZM226.72 60.663C231.76 59.6556 233.024 53.7864 233.344 50.1948C233.344 50.9248 233.664 56.0348 233.904 57.8744C233.895 57.908 233.895 57.943 233.904 57.9766L227.68 61.32C226.991 62.4732 226.402 63.6741 225.92 64.9116C225.381 63.6106 224.739 62.3468 224 61.1302C224.912 61.028 225.792 60.882 226.72 60.6922V60.663ZM225.712 65.5686C225.706 65.5993 225.706 65.6308 225.713 65.6614C225.72 65.6919 225.734 65.7209 225.753 65.7466C225.772 65.7724 225.797 65.7944 225.826 65.8115C225.854 65.8285 225.886 65.8403 225.92 65.846C225.954 65.8518 225.988 65.8514 226.022 65.845C226.055 65.8386 226.087 65.8262 226.115 65.8086C226.143 65.7909 226.168 65.7684 226.186 65.7423C226.205 65.7161 226.218 65.6869 226.224 65.6562C226.704 64.3276 227.408 63.0428 227.824 61.7142C228.713 63.496 229.785 65.1971 231.024 66.795C233.234 65.3455 235.315 63.7394 237.248 61.9916C231.984 72.6058 230 87.7898 229.696 92.783C228.416 88.403 222.704 70.5618 220.592 66.2256C221.13 66.5321 221.737 66.7219 222.368 66.7804C222.768 66.1526 223.52 62.2982 223.968 61.2324C224 61.4514 225.344 64.7364 225.712 65.5978V65.5686ZM218.304 52.925C218.651 53.0185 219.016 53.0447 219.375 53.0018C219.734 52.9589 220.079 52.8479 220.387 52.676C220.696 52.5041 220.963 52.2751 221.169 52.0036C221.375 51.7322 221.516 51.4244 221.584 51.1C221.584 50.9102 222.016 51.0124 221.984 51.2022C221.52 53.874 218.784 53.6696 218.256 53.0272C218.224 53.0126 218.256 52.9542 218.304 52.9542V52.925ZM218.208 61.1886C220.028 61.4284 221.876 61.4284 223.696 61.1886C222.964 62.8598 222.386 64.5837 221.968 66.3424C221.488 66.0504 218.672 64.5612 217.808 64.0356C217.824 64.0064 218.144 62.2398 218.208 61.2178V61.1886ZM217.6 64.24C218.351 64.8814 219.177 65.4445 220.064 65.919C221.456 70.7808 228.064 89.1914 229.36 93.659C227.36 91.0602 216.688 80.519 214.016 77.3946C214.789 75.8237 215.452 74.2096 216 72.562C214.6 72.0664 213.146 71.7043 211.664 71.4816C213.269 69.3964 214.546 67.1161 215.456 64.7072C216.112 64.5028 217.6 64.24 217.6 64.24ZM187.056 97.2652C188.469 89.9718 192.063 83.1762 197.44 77.6282C200.019 74.9815 202.84 72.5394 205.872 70.3282C208.587 68.0341 211.701 66.169 215.088 64.8094C213.696 66.9848 212.368 69.5836 210.848 71.7152C210.72 71.905 214.16 72.5036 215.536 72.9416C215.232 73.4088 213.856 76.65 213.456 77.526C213.456 77.6282 227.216 91.688 229.728 94.9146C229.52 97.163 230.944 109.106 230.96 109.12C229.472 109.953 227.888 110.902 226.464 111.807C226.336 111.807 226.816 112.581 226.96 112.858C226.367 113.128 225.718 113.277 225.056 113.296C225.232 110.186 224.928 106.58 222.016 104.536C220.738 103.697 219.233 103.192 217.664 103.076C215.12 102.784 212.576 102.653 210.032 102.317C208.944 102.171 207.84 101.996 206.752 101.806V101.718C205.868 97.2547 205.525 92.716 205.728 88.184C205.728 88.0672 205.52 88.0234 205.488 88.184C204.898 92.7095 205.136 97.2931 206.192 101.747C199.68 100.623 193.392 98.9296 186.992 97.2506L187.056 97.2652ZM175.456 94.3452C175.608 93.6548 176.035 93.0406 176.656 92.6224C177.141 92.3386 177.712 92.2026 178.287 92.2341C178.863 92.2656 179.412 92.4629 179.856 92.7976C180.343 93.1785 180.694 93.6842 180.862 94.2492C181.031 94.8141 181.009 95.4122 180.8 95.9658C180.576 96.652 179.376 98.6814 178.416 97.0608C178.474 96.9425 178.522 96.8205 178.56 96.6958C178.716 96.0647 178.834 95.4262 178.912 94.7832C178.72 95.3672 178.608 95.995 178.384 96.5644C178.334 96.7451 178.243 96.9141 178.116 97.0601C177.989 97.2061 177.83 97.3258 177.648 97.4112C177.136 97.5718 176.752 97.2068 176.56 96.8126C176.869 95.937 177.057 95.0297 177.12 94.1116C177.028 95.0745 176.746 96.0143 176.288 96.8856C175.968 97.4112 175.36 97.4696 175.152 96.8856C175.112 96.6877 175.112 96.4849 175.152 96.287C175.174 95.6267 175.276 94.9706 175.456 94.3306V94.3452ZM152.768 91.4252C152.912 91.5566 153.04 91.7026 153.184 91.8632C153.185 91.8854 153.194 91.9069 153.208 91.925C153.222 91.9431 153.242 91.9571 153.264 91.9654C153.599 92.3558 153.859 92.7952 154.032 93.2648C154.24 93.8488 154.672 95.2942 153.344 94.7248C152.943 94.2076 152.499 93.7195 152.016 93.2648C151.92 93.2648 152.016 93.2648 152.016 93.2648C152.304 93.732 154.592 96.6082 152.016 95.9658C151.771 95.2886 151.379 94.6631 150.864 94.1262C150.836 94.108 150.802 94.0987 150.767 94.0996C150.732 94.1006 150.699 94.1118 150.672 94.1315C150.645 94.1513 150.626 94.1786 150.617 94.2092C150.608 94.2398 150.611 94.2722 150.624 94.3014C150.944 94.973 152.736 97.4842 150.624 96.8126C149.421 96.165 148.539 95.1191 148.16 93.8926C147.915 93.3442 147.894 92.7334 148.101 92.172C148.308 91.6106 148.73 91.1359 149.289 90.8348C149.848 90.5336 150.507 90.4261 151.146 90.5318C151.785 90.6375 152.361 90.9495 152.768 91.4106V91.4252ZM90.6401 59.13C91.4117 59.1279 92.1756 59.2691 92.8853 59.5453C93.595 59.8214 94.2357 60.2265 94.7681 60.736C94.4801 58.6336 90.9921 55.6406 90.9921 55.6406C86.9121 55.7282 87.7921 52.049 87.7921 52.049C87.9764 51.6613 88.2604 51.3198 88.6201 51.0536C88.9798 50.7873 89.4045 50.6042 89.8583 50.5197C90.3121 50.4351 90.7815 50.4517 91.2268 50.568C91.6721 50.6843 92.0801 50.8968 92.4161 51.1876C92.4161 51.6402 93.2801 53.7134 94.5281 53.801C95.7761 53.8886 95.3281 55.0858 95.3281 55.0858C95.3281 55.0858 96.2561 53.9908 95.3281 53.3776C94.4001 52.7644 94.3201 51.173 94.3201 51.173C99.5681 50.735 103.264 39.2156 103.264 39.2156C104.608 45.5958 112.192 45.7126 112.192 45.7126C112.205 49.4994 111.959 53.2833 111.456 57.0422C111.238 58.1805 110.61 59.2198 109.671 59.9949C108.731 60.7699 107.535 61.2363 106.272 61.32C106.272 61.32 106.272 65.1452 106.496 66.211C104.753 67.5838 102.527 68.3391 100.224 68.3391C97.9214 68.3391 95.6954 67.5838 93.9521 66.211V64.751C94.6947 64.7982 95.4408 64.7688 96.1761 64.6634C91.6961 63.8604 90.6401 59.13 90.6401 59.13ZM93.1041 67.671C94.7041 70.3866 103.776 72.051 107.504 67.1162C109.268 67.1266 111.028 67.2633 112.768 67.525C111.536 79.1028 92.7681 79.5116 88.3041 69.5982C89.8561 68.9266 91.4721 68.2988 93.1041 67.671ZM65.0081 113.88C56.4481 102.55 62.7841 87.2934 72.7841 78.5626C77.1944 74.8803 82.2656 71.9171 87.7761 69.8026C89.6001 75.1024 96.8481 77.7596 102.56 77.1026C105.274 76.8698 107.819 75.7999 109.777 74.0693C111.734 72.3387 112.987 70.051 113.328 67.5834C117.907 68.3129 122.267 69.9094 126.128 72.27C130.192 74.7726 133.789 77.8533 136.784 81.395C140.656 85.8772 142.848 91.3084 145.152 96.579C141.296 99.0172 136.768 101.572 132.128 103.967C131.328 103.412 129.504 101.937 129.136 101.631C129.258 97.3057 128.249 93.0165 126.192 89.1184H126.032C129.328 96.5498 128.416 102.769 128.56 105.689C120.112 109.836 111.952 113.15 107.76 113.968C107.76 113.968 107.76 113.749 107.632 113.719C100.928 111.69 80.9441 105.193 80.9121 105.193C81.3258 102.75 81.5982 100.289 81.7281 97.82C81.7281 97.82 81.6001 97.82 81.6001 97.9076C80.9121 100.317 80.8161 102.93 80.3841 105.397C80.376 105.442 80.3822 105.488 80.4021 105.529C80.422 105.571 80.4547 105.606 80.4961 105.631C89.2001 109.062 98.3841 111.471 107.408 114.084C107.62 116.869 107.48 119.666 106.992 122.421C92.8001 123.604 74.4481 126.363 65.0081 113.88ZM131.632 104.229C130.736 104.697 129.824 105.149 128.928 105.587C129.024 104.492 129.088 103.339 129.104 102.156C129.865 102.926 130.712 103.621 131.632 104.229ZM107.936 116.158C108.468 116.363 109.039 116.469 109.616 116.469C110.193 116.469 110.765 116.363 111.296 116.158C112.48 115.588 113.072 114.406 114.144 113.69C114.214 114.488 113.977 115.284 113.472 115.939C113.36 116.07 113.472 116.231 113.696 116.216C114.784 116.362 117.04 115.968 117.824 116.552C118.928 117.355 114.992 117.705 113.984 117.822C113.824 117.822 113.872 118.056 113.984 118.07C115.229 118.063 116.465 117.881 117.648 117.53C118.592 119.72 114.608 119.224 113.856 119.472C113.824 119.481 113.796 119.5 113.776 119.525C113.757 119.55 113.746 119.58 113.746 119.611C113.746 119.641 113.757 119.671 113.776 119.696C113.796 119.721 113.824 119.74 113.856 119.749C114.789 119.807 115.725 119.748 116.64 119.574C117.488 121.399 109.664 122.83 107.696 120.406C107.914 118.999 107.994 117.578 107.936 116.158ZM83.5041 143.08C83.5041 142.992 83.7121 143.08 83.6961 143.08C83.2961 148.628 79.4561 171.2 78.2881 176.908C78.2881 177.069 78.0001 176.996 78.0321 176.908C78.8641 171.273 82.2881 148.686 83.5041 143.08ZM70.7841 180.062C72.4559 180.827 74.1763 181.499 75.9361 182.077C75.9361 182.5 76.0321 183.084 76.0801 183.741C72.1121 183.391 68.3361 184.106 64.3841 183.858C64.3841 182.558 64.2721 180.164 64.2721 180.164C65.3441 180.135 68.3681 180.076 70.7841 180.106V180.062ZM71.9521 184.267H76.0001C76.1441 186.033 76.3041 188.457 76.4641 191.056C75.0439 190.873 73.6065 190.829 72.1761 190.924C72.253 188.718 72.1943 186.51 72.0001 184.31L71.9521 184.267ZM71.5521 190.91C71.3761 190.91 66.7521 190.91 64.6561 190.997C64.6561 189.245 64.3841 184.807 64.3841 184.34C66.7495 184.485 69.1228 184.485 71.4881 184.34C71.2041 186.538 71.2256 188.76 71.5521 190.953V190.91ZM9.34414 172.163C23.7441 160.688 37.6961 149.796 52.4161 138.583C57.8721 142.963 63.8881 146.876 69.7441 150.862C67.9361 158.527 65.9521 166.922 64.8001 171.754C50.0641 171.988 18.3521 172.28 9.34414 172.163ZM12.0641 220.241C12.166 218.199 12.0265 216.153 11.6481 214.138C17.0081 214.722 65.1841 214.226 78.4001 214.036C78.4961 215.496 78.6561 217.467 78.8161 219.628C64.0001 219.628 22.9761 219.978 12.0641 220.241ZM48.6721 200.589C51.5999 200.38 54.5395 200.346 57.4721 200.487C57.4721 200.487 57.4721 211.408 57.7281 213.773L48.9761 213.905C48.8481 209.335 48.9761 205.13 48.6721 200.589ZM87.9361 240.009C79.0401 241.396 73.7761 240.593 70.9761 240.754C70.8641 240.097 72.0481 238.593 72.5761 238.228C73.1041 237.863 80.0001 234.856 80.0001 234.856C82.1601 238.433 86.6241 236.71 88.0001 236.082C88.3611 237.39 88.3611 238.76 88.0001 240.068L87.9361 240.009ZM93.5521 214.357C88.0481 216.562 82.5921 215.175 78.2241 211.598L78.3521 213.408L58.3201 213.7C58.5567 209.142 58.4123 204.573 57.8881 200.035C57.8881 200.035 51.1041 199.202 48.0801 199.932C47.9841 199.932 48.1601 209.276 48.2881 213.846L17.8881 213.744C17.8881 213.744 17.3441 186.427 16.4961 172.864C23.3121 173.054 50.8161 172.572 64.7201 172.309L63.8721 175.857C65.6028 177.326 67.5398 178.577 69.6321 179.58C67.7414 179.398 65.8305 179.517 63.9841 179.93C63.9739 179.964 63.9739 179.999 63.9841 180.033C63.6483 183.825 63.7126 187.639 64.1761 191.421C64.1761 191.421 64.2881 191.596 64.3681 191.596C66.3521 191.713 74.3361 191.377 76.6721 191.683C77.0401 197.713 77.4721 204.531 77.8881 206.867C77.8881 206.867 78.3521 211.437 78.4321 211.481C80.6881 212.941 86.2561 217.014 93.4721 214.109C93.6161 214.007 93.7601 214.343 93.5521 214.416V214.357ZM94.9121 208.692C88.0001 210.24 80.3201 207.554 78.4001 206.765C77.7601 202.502 77.3761 186.048 76.4001 182.252C84.2607 184.655 92.5109 185.825 100.8 185.712C99.5521 189.362 95.7921 204.794 94.9121 208.78V208.692ZM92.5441 159.052C92.5553 159.02 92.5776 158.991 92.6079 158.971C92.6381 158.951 92.6746 158.94 92.7121 158.94C92.7496 158.94 92.7862 158.951 92.8164 158.971C92.8466 158.991 92.8689 159.02 92.8801 159.052C92.8801 164.075 93.0561 169.112 92.8801 174.134C92.8801 174.28 92.6241 174.28 92.6081 174.134C92.3681 169.185 92.5281 164.148 92.5441 159.14V159.052ZM104.752 127.925C101.168 128.1 83.9521 128.83 79.0081 126.611H78.9281C77.6687 125.428 76.9092 123.877 76.7841 122.231C77.4561 122.45 78.1601 122.64 78.8481 122.815C87.4721 124.874 96.4481 123.662 105.136 122.947C104.891 124.621 104.762 126.309 104.752 127.998V127.925ZM121.984 210.401C120.384 206.21 115.712 188.968 113.776 184.924C115.376 184.748 118.784 184.208 119.984 184.018C121.584 187.07 123.504 190.019 125.264 192.983C127.024 195.947 128.896 199.129 130.832 202.122C132.432 204.531 134.032 206.897 135.808 209.174C130.448 212.605 124.096 211.116 121.984 210.474V210.401ZM145.2 239.06C140.128 239.163 136.096 239.528 130.8 239.265C130.424 237.667 130.364 236.02 130.624 234.403C135.584 238.155 137.568 233.279 137.568 233.279C138.672 234.213 145.152 236.943 145.2 239.133V239.06ZM209.008 223.73C212.608 224.694 217.68 224.066 221.232 223.395C221.072 224.606 222.112 228.972 216.24 229.585C208.912 230.446 209.328 224.942 209.008 223.803V223.73ZM213.936 237.031C211.904 237.338 203.84 238.491 203.28 235.381C203.888 235.752 204.597 235.96 205.328 235.98C208.112 236.184 221.504 233.965 222.256 233.147C223.104 236.374 216.128 236.783 213.936 237.104V237.031ZM222.256 232.826C221.408 233.542 210.4 235.323 208.128 235.483C205.856 235.644 201.856 235.965 203.536 232.797C203.889 232.161 204.336 231.571 204.864 231.045C205.525 231.642 206.225 232.203 206.96 232.724C207.152 232.841 207.344 232.636 207.248 232.461C206.746 231.724 206.025 231.131 205.168 230.753C205.632 230.315 206.16 229.877 206.688 229.468C207.008 229.702 208.144 230.841 208.496 231.03C208.532 231.05 208.574 231.059 208.616 231.056C208.657 231.053 208.697 231.039 208.73 231.016C208.763 230.992 208.787 230.96 208.8 230.923C208.812 230.887 208.812 230.848 208.8 230.811C208.445 230.102 207.836 229.525 207.072 229.176L208.24 228.315C209.088 228.811 209.84 229.424 210.672 229.95C210.784 229.95 210.928 229.95 210.848 229.804C210.217 229.084 209.42 228.501 208.512 228.096C208.829 227.86 209.16 227.641 209.504 227.439C210.212 228.282 211.125 228.964 212.171 229.43C213.217 229.896 214.368 230.133 215.532 230.123C216.696 230.113 217.842 229.856 218.878 229.373C219.915 228.889 220.814 228.192 221.504 227.337C222.656 228.446 222.256 231.95 222.256 232.899V232.826ZM225.056 174.12C223.84 188.092 206.016 215.204 206.016 215.204V215.554C196.8 227.76 184.56 235.06 179.808 238.549C173.12 236.724 167.104 233.177 161.36 229.643C155.179 226.032 149.369 221.917 144 217.35C138.892 212.584 134.511 207.212 130.976 201.378C127.264 195.538 124.128 189.435 120.256 183.726C118.656 180.602 106.064 154.293 105.408 127.969C105.554 126.318 105.581 124.659 105.488 123.005L106.992 122.888C107.092 122.831 107.165 122.743 107.2 122.64C107.38 122.045 107.519 121.44 107.616 120.83C108.47 121.373 109.445 121.737 110.472 121.893C111.499 122.05 112.551 121.996 113.552 121.735C114.72 121.501 117.6 121.005 117.008 119.384C117.19 119.322 117.362 119.239 117.52 119.136C117.687 119.058 117.831 118.944 117.939 118.804C118.046 118.664 118.115 118.502 118.139 118.332C118.162 118.163 118.14 117.99 118.074 117.83C118.008 117.67 117.9 117.527 117.76 117.413C118.336 117.15 118.592 116.785 118.144 116.274C117.904 116.092 117.625 115.958 117.325 115.88C117.024 115.802 116.709 115.782 116.4 115.822C115.544 115.812 114.688 115.861 113.84 115.968C114.416 115.238 114.72 112.727 113.936 113.165C113.219 113.671 112.592 114.277 112.08 114.96C110.88 116.216 109.488 116.085 107.856 115.851C107.856 115.34 107.856 114.829 107.712 114.391C110.933 114.019 114.058 113.134 116.944 111.778C120.688 110.318 138.848 102.682 148.32 95.1482C148.568 95.6588 148.929 96.117 149.381 96.4939C149.832 96.8708 150.365 97.1583 150.944 97.3382C152 97.5572 152.192 97.0024 152.032 96.3016C152.146 96.3769 152.278 96.4262 152.418 96.4452C152.557 96.4643 152.699 96.4526 152.832 96.4111C152.965 96.3696 153.086 96.2996 153.183 96.2068C153.281 96.1141 153.352 96.0014 153.392 95.8782C153.512 95.5763 153.512 95.2457 153.392 94.9438C153.968 95.2212 154.384 95.265 154.56 94.6372C154.619 94.1281 154.564 93.6135 154.399 93.1242C154.234 92.6349 153.962 92.1812 153.6 91.7902C154.736 90.9726 155.792 90.082 156.912 89.2498C159.2 87.5854 162 89.5272 164.288 90.4178C167.776 91.7902 174.912 94.5788 174.96 94.5204C174.858 94.91 174.784 95.3049 174.736 95.703C174.736 96.2432 174.4 97.2798 175.168 97.5572C175.664 97.7324 176.032 97.4696 176.288 97.0316C176.334 97.177 176.417 97.3106 176.53 97.4218C176.642 97.5331 176.782 97.619 176.937 97.6728C177.092 97.7265 177.258 97.7467 177.424 97.7317C177.589 97.7168 177.748 97.667 177.888 97.5864C178.009 97.5147 178.117 97.426 178.208 97.3236C178.64 97.966 179.44 98.3164 180.096 97.7324C180.616 97.2768 180.992 96.7019 181.184 96.068C189.319 98.6625 197.65 100.712 206.112 102.2C210.128 102.886 214.224 103.018 218.24 103.66C223.648 104.492 224.816 108.945 224.64 113.296C224.25 113.277 223.864 113.218 223.488 113.121C222.66 112.887 221.848 112.609 221.056 112.289C221.056 112.289 220.96 112.289 220.96 112.376C220.799 112.954 220.849 113.564 221.104 114.114C221.249 114.542 221.562 114.906 221.984 115.136C221.036 115.586 220.194 116.201 219.504 116.946C219.04 117.384 217.744 118.406 217.904 119.136C218.064 119.866 218.896 119.662 219.504 119.501C219.439 119.631 219.411 119.775 219.424 119.917C219.436 120.06 219.488 120.198 219.574 120.317C219.66 120.437 219.778 120.535 219.917 120.601C220.056 120.668 220.211 120.701 220.368 120.698H220.864C221.856 121.72 223.296 120.873 224.304 120.275L225.632 119.501C225.632 122.99 226.224 126.494 226.576 129.969C226.832 132.641 226.96 135.357 227.344 138.028C228.112 158.089 226.256 160.25 225.056 174.193V174.12ZM227.888 137.926C227.68 135.006 227.232 132.086 226.96 129.166C226.64 125.852 226.512 122.465 225.936 119.18C227.172 118.458 228.306 117.6 229.312 116.625C230.128 117.807 230.992 118.961 231.76 120.085C231.976 120.206 232.215 120.29 232.464 120.333C232.176 123.253 233.728 134.481 234.304 138.481C231.2 138.393 228.896 138.131 227.888 137.999V137.926ZM234.608 138.51C234.272 134.451 233.408 123.253 233.008 120.333C244.304 120.173 256.304 117.326 264.448 109.953C264.624 114.508 266.176 128.144 266.256 130.393C266.371 131.089 266.292 131.8 266.027 132.461C265.761 133.122 265.317 133.711 264.736 134.174C254.656 138.7 242.304 138.977 234.608 138.583V138.51ZM257.008 235.25C254.432 236.316 249.248 238.389 247.52 235.425C248.424 235.497 249.335 235.418 250.208 235.191C254.994 234.349 259.517 232.555 263.456 229.935C265.2 231.673 258.016 234.87 256.928 235.323L257.008 235.25ZM263.296 229.57C259.592 232.093 255.308 233.815 250.768 234.607C249.344 234.87 247.056 235.381 246.768 233.644C246.815 233.001 247.071 232.386 247.504 231.877C247.68 231.585 247.888 231.308 248.096 231.03C248.674 231.311 249.176 231.705 249.568 232.184C249.744 232.301 249.904 232.082 249.84 231.936C249.485 231.404 248.952 230.989 248.32 230.753C248.624 230.373 248.944 230.008 249.264 229.643C250.4 230.067 250.704 230.884 251.04 231.103C251.376 231.322 251.328 231.103 251.28 230.943C250.877 230.27 250.264 229.722 249.52 229.366L250.336 228.461C251.552 229.147 251.936 230.038 252.288 230.344C252.432 230.446 252.72 230.344 252.64 230.154C252.214 229.314 251.53 228.604 250.672 228.11L251.52 227.147C253.408 230.067 260.672 228.607 260.944 225.249C261.856 226.643 262.617 228.115 263.216 229.643L263.296 229.57ZM259.776 221.453C260.096 222.533 262.416 227.132 256.224 228.154C251.92 228.87 250.272 224.183 250.176 223.993C253.529 223.931 256.808 223.081 259.696 221.526L259.776 221.453ZM300.8 199.115C300.048 198.808 300.048 198.224 299.776 197.655C299.416 196.708 298.938 195.802 298.352 194.954C295.712 191.742 290.352 192.618 286.944 194.37C286.096 194.834 285.377 195.471 284.844 196.231C284.311 196.991 283.979 197.853 283.872 198.75C283.853 199.141 283.811 199.531 283.744 199.918C283.44 200.896 283.2 200.867 282.048 200.998C280.56 201.173 267.088 202.02 259.472 202.225C258.272 195.83 257.088 189.493 256.576 186.909C255.816 184.001 255.691 180.985 256.208 178.032C258.149 175.382 259.623 172.471 260.576 169.404C265.552 169.097 276.576 168.221 279.392 168.893C282.896 169.769 284.768 172.484 286.064 175.375C287.36 178.266 288.352 181.478 289.472 184.354C289.472 184.471 289.808 184.529 289.856 184.529C292.64 184.529 295.488 184.164 298.272 184.048C301.056 183.931 304.8 182.967 307.168 184.573C308.901 186.05 309.983 188.055 310.208 190.209C310.762 193.027 311.03 195.886 311.008 198.75C308.192 198.662 301.248 199.305 300.8 199.115Z" fill="black" fill-opacity="0.41"/>
<path d="M296.272 206.59C296.814 206.196 297.262 205.706 297.589 205.149C297.917 204.592 298.116 203.98 298.176 203.35C298.236 202.721 298.155 202.087 297.938 201.486C297.72 200.886 297.371 200.333 296.912 199.86C295.926 198.734 294.552 197.944 293.014 197.619C291.475 197.293 289.861 197.45 288.432 198.064C285.136 199.845 286.128 203.597 287.632 205.495C289.36 207.656 293.904 208.05 296.272 206.59ZM288.688 198.56C289.651 198.133 290.724 197.954 291.79 198.044C292.857 198.135 293.876 198.49 294.736 199.071C296.976 200.4 298.384 203.554 296.336 205.568C294.736 207.131 290.864 207.028 289.088 205.787C285.664 203.437 286.912 199.349 288.688 198.56Z" fill="black" fill-opacity="0.41"/>
<path d="M292.801 202.94C293.094 202.667 293.258 202.3 293.258 201.918C293.258 201.536 293.094 201.169 292.801 200.896C292.504 200.642 292.112 200.5 291.705 200.5C291.297 200.5 290.906 200.642 290.609 200.896C290.459 201.011 290.336 201.152 290.249 201.311C290.162 201.471 290.111 201.645 290.101 201.823C290.09 202.001 290.12 202.179 290.188 202.346C290.256 202.513 290.361 202.666 290.497 202.794C290.635 202.945 290.805 203.07 290.997 203.159C291.189 203.249 291.399 203.302 291.615 203.316C291.83 203.329 292.046 203.303 292.25 203.239C292.454 203.174 292.641 203.073 292.801 202.94ZM292.145 201.203C292.265 201.245 292.373 201.313 292.459 201.401C292.545 201.489 292.607 201.594 292.64 201.708C292.673 201.822 292.676 201.942 292.648 202.057C292.62 202.172 292.563 202.28 292.481 202.371C290.865 203.933 289.921 200.531 292.113 201.174L292.145 201.203ZM278.065 173.915C274.865 171.667 268.817 173.215 265.409 174.149C265.373 174.153 265.341 174.168 265.317 174.192C265.294 174.217 265.281 174.248 265.281 174.28C265.569 177.711 266.449 181.361 267.041 184.763C267.041 184.763 277.073 183.61 282.049 183.624C282.177 183.624 282.417 183.624 282.401 183.464C281.937 180.193 281.121 176.076 278.065 173.915ZM267.489 184.135C266.961 180.982 266.737 177.726 266.049 174.587C269.425 174.003 275.025 172.353 277.921 174.733C280.449 176.792 281.025 180.12 281.505 183.026C279.169 183.026 269.825 183.814 267.489 184.165V184.135ZM294.305 212.372C289.665 209.817 283.233 210.678 278.305 212.372C275.714 213.235 273.281 214.451 271.089 215.978C269.377 217.19 267.777 218.606 268.129 220.723C268.129 221.044 270.769 228.709 270.817 228.724C275.089 231.22 281.425 231.06 286.161 230.023C288.793 229.456 291.314 228.52 293.633 227.249C295.705 226.073 297.404 224.422 298.561 222.46C298.561 222.46 298.145 217.599 298.129 217.482C297.992 216.411 297.573 215.387 296.907 214.497C296.241 213.607 295.348 212.878 294.305 212.372ZM269.905 217.759C271.902 215.845 274.331 214.351 277.025 213.379C282.177 211.291 289.537 210.591 293.809 212.883C296.577 214.343 298.433 217.423 296.401 220.183C294.696 222.036 292.489 223.45 290.001 224.285C284.961 226.344 277.969 227.994 272.865 225.264C270.129 223.804 267.489 220.46 269.905 217.759ZM292.577 227.03C290.515 228.064 288.308 228.836 286.017 229.322C281.23 230.473 276.159 230.123 271.617 228.33C271.617 228.33 270.417 225.059 269.825 223.453C270.928 224.657 272.316 225.618 273.885 226.263C275.453 226.908 277.161 227.22 278.881 227.176C284.499 227.045 289.95 225.399 294.545 222.446C295.788 221.721 296.773 220.681 297.377 219.453C297.521 220.387 297.649 222.3 297.649 222.373C296.453 224.317 294.699 225.927 292.577 227.03Z" fill="black" fill-opacity="0.41"/>
<path d="M280.304 223.731L279.824 224.505C279.648 224.797 280.144 225.059 280.32 224.767L280.864 223.906C281.404 224.054 281.973 224.087 282.528 224C283.083 223.914 283.609 223.712 284.064 223.41C284.336 223.22 284.064 222.84 283.712 222.986C282.949 223.375 282.059 223.505 281.2 223.351C282.128 221.891 283.12 220.563 284.128 219.219C284.496 219.219 284.864 219.219 285.248 219.307C285.969 219.411 286.707 219.308 287.36 219.012C288.014 218.717 288.551 218.243 288.896 217.657C289.116 217.129 289.147 216.552 288.986 216.007C288.825 215.462 288.48 214.977 288 214.62L287.76 214.474L288.304 213.715C288.314 213.705 288.321 213.693 288.325 213.68C288.329 213.666 288.331 213.653 288.329 213.639C288.328 213.626 288.324 213.612 288.317 213.6C288.309 213.588 288.3 213.578 288.288 213.569C288.277 213.561 288.263 213.554 288.249 213.55C288.235 213.546 288.22 213.545 288.205 213.546C288.19 213.548 288.176 213.552 288.163 213.558C288.149 213.565 288.138 213.573 288.128 213.584C287.872 213.817 287.616 214.051 287.376 214.299C286.524 214.077 285.627 214.032 284.753 214.166C283.878 214.299 283.047 214.609 282.32 215.073C282.176 215.161 282.32 215.394 282.448 215.336C283.263 214.999 284.124 214.769 285.008 214.65C285.646 214.58 286.293 214.625 286.912 214.781C285.754 216.016 284.685 217.318 283.712 218.679C282.032 218.519 280.096 218.402 278.912 219.818C278.646 220.14 278.469 220.517 278.396 220.915C278.323 221.313 278.356 221.721 278.492 222.105C278.629 222.489 278.865 222.837 279.18 223.12C279.496 223.403 279.881 223.613 280.304 223.731ZM287.424 214.869C287.829 214.993 288.17 215.25 288.38 215.589C288.589 215.929 288.654 216.328 288.56 216.708C288.144 218.665 286.288 218.825 284.56 218.694C285.52 217.424 286.48 216.153 287.424 214.869ZM281.6 219.073C282.132 219.019 282.669 219.019 283.2 219.073C282.256 220.402 281.376 221.774 280.528 223.118C277.616 221.92 279.312 219.322 281.6 219.073ZM104.112 252.011C103.567 250.69 102.68 249.509 101.526 248.569C100.373 247.628 98.9877 246.956 97.4884 246.609C93.0315 245.57 88.334 245.789 84.0164 247.237C80.2724 248.317 74.4164 251.339 75.6004 255.749C75.7444 256.683 77.7124 263.399 77.8244 263.399C81.6324 266.961 88.0964 266.859 93.0724 266.319C97.4884 265.779 103.76 264.304 105.488 259.983C105.2 257.344 104.751 254.721 104.144 252.128C104.153 252.119 104.159 252.108 104.162 252.097C104.165 252.085 104.165 252.073 104.162 252.062C104.159 252.05 104.153 252.04 104.144 252.031C104.135 252.022 104.125 252.015 104.112 252.011ZM76.6084 252.58C78.1816 250.281 80.6421 248.604 83.5044 247.879C87.9345 246.342 92.7714 246.067 97.3764 247.091C100.48 247.748 104.416 250.536 103.776 253.836C103.232 256.887 100.576 258.216 97.7124 259.223C92.494 261.311 86.6155 261.571 81.2004 259.953C77.8404 258.756 74.5284 256.07 76.6084 252.58ZM92.2884 265.823C89.7925 266.123 87.2642 266.123 84.7684 265.823C82.3671 265.417 80.0875 264.552 78.0804 263.282C78.0804 263.282 77.2164 259.574 76.7204 257.807C79.1844 260.596 84.5124 261.34 88.0004 261.34C90.9333 261.337 93.8443 260.878 96.6084 259.983C98.9685 259.42 101.136 258.325 102.912 256.8C103.435 256.258 103.837 255.628 104.096 254.946C104.32 256.595 105.008 259.851 105.008 259.851C102 263.822 97.3604 265.209 92.2884 265.72V265.823Z" fill="black" fill-opacity="0.41"/>
</svg>
