<svg width="200" height="133" viewBox="0 0 200 133" fill="none" xmlns="http://www.w3.org/2000/svg">
<path d="M84.4999 132.94C84.4947 132.921 84.4932 132.901 84.4957 132.881C84.4981 132.862 84.5044 132.843 84.5141 132.825C84.5239 132.808 84.5369 132.793 84.5525 132.781C84.5681 132.769 84.5859 132.76 84.6049 132.755C84.624 132.749 84.6439 132.748 84.6635 132.75C84.6831 132.753 84.702 132.759 84.7192 132.769C84.7364 132.779 84.7515 132.792 84.7636 132.807C84.7757 132.823 84.7847 132.841 84.7899 132.86C85.3313 135.043 85.1596 137.341 84.2999 139.42C84.2399 139.55 84.0399 139.42 84.0699 139.32C84.7422 137.262 84.89 135.069 84.4999 132.94ZM77.7699 132.64C77.6399 132.76 77.4099 132.64 77.5099 132.44C78.0433 131.757 78.7656 131.246 79.587 130.971C80.4084 130.695 81.2927 130.667 82.1299 130.89C82.2499 130.89 82.1799 131.14 82.0599 131.12C81.2765 131.033 80.4835 131.124 79.7406 131.388C78.9976 131.651 78.3238 132.079 77.7699 132.64Z" fill="black" fill-opacity="0.36"/>
<path d="M82.7393 129.81C83.1739 129.39 83.7378 129.129 84.3393 129.07C84.2067 126.988 83.7826 124.934 83.0793 122.97C82.9993 122.81 83.2893 122.68 83.3693 122.84C84.2305 124.789 84.6701 126.899 84.6593 129.03C84.6593 129.03 86.1893 129.14 86.6593 129.71C86.8483 129.967 86.9404 130.282 86.9193 130.6C88.2932 129.913 89.8271 129.608 91.3593 129.72C91.4017 129.72 91.4424 129.737 91.4724 129.767C91.5024 129.797 91.5193 129.837 91.5193 129.88C91.5193 129.922 91.5024 129.963 91.4724 129.993C91.4424 130.023 91.4017 130.04 91.3593 130.04C89.819 130.069 88.2971 130.381 86.8693 130.96C86.7598 131.387 86.5307 131.775 86.2089 132.076C85.8871 132.378 85.4859 132.582 85.0524 132.664C84.6189 132.746 84.1711 132.702 83.7614 132.539C83.3517 132.375 82.9971 132.098 82.7393 131.74C82.7393 131.74 81.9993 130.56 82.7393 129.81ZM86.3593 130C86.1493 129.51 85.4393 129.39 84.9093 129.38C84.2796 129.354 83.6585 129.533 83.1393 129.89C82.9093 130.07 82.6293 130.31 82.6793 130.6C83.2093 133.59 87.2793 132.22 86.3593 130ZM172.999 132.52C173.213 134.012 172.976 135.533 172.319 136.89C172.239 137.01 172.029 136.89 172.079 136.79C172.624 135.433 172.827 133.963 172.669 132.51C172.579 132.51 170.279 132.35 170.289 130.22C169.147 129.909 167.948 129.871 166.789 130.11C166.757 130.117 166.723 130.112 166.694 130.094C166.666 130.077 166.645 130.05 166.636 130.018C166.627 129.986 166.631 129.952 166.646 129.922C166.662 129.893 166.688 129.871 166.719 129.86C167.899 129.484 169.17 129.516 170.329 129.95C170.419 129.71 171.149 128.7 173.139 128.95C173.553 128.141 173.66 127.21 173.439 126.329C173.218 125.449 172.685 124.678 171.939 124.16C171.789 124.04 171.939 123.81 172.079 123.91C172.914 124.425 173.524 125.237 173.785 126.183C174.046 127.129 173.941 128.139 173.489 129.01C175.069 129.39 175.209 130.17 175.289 130.44C176.635 130.359 177.981 130.581 179.229 131.09C179.26 131.108 179.282 131.138 179.29 131.173C179.299 131.208 179.293 131.244 179.274 131.275C179.256 131.305 179.226 131.327 179.191 131.336C179.156 131.344 179.12 131.338 179.089 131.32C177.868 130.991 176.613 130.806 175.349 130.77C175.319 131.043 175.234 131.307 175.097 131.546C174.96 131.785 174.776 131.993 174.556 132.157C174.335 132.321 174.083 132.438 173.815 132.501C173.548 132.563 173.27 132.57 172.999 132.52ZM174.719 130.11C173.719 128.85 170.559 128.94 170.559 130.34C170.659 132.11 173.159 132.55 174.419 131.77C174.676 131.588 174.854 131.316 174.919 131.008C174.984 130.701 174.93 130.38 174.769 130.11H174.719ZM116.649 44.3499C116.652 44.3237 116.661 44.2985 116.674 44.276C116.688 44.2535 116.707 44.2343 116.728 44.2197C116.75 44.2051 116.775 44.1955 116.801 44.1916C116.827 44.1876 116.854 44.1894 116.879 44.1968C116.904 44.2043 116.928 44.2171 116.947 44.2345C116.967 44.2519 116.983 44.2735 116.993 44.2976C117.004 44.3217 117.009 44.3479 117.008 44.3742C117.007 44.4005 117.001 44.4263 116.989 44.4499C116.929 44.6299 116.609 45.5199 116.579 45.5799C116.556 45.6084 116.524 45.6286 116.488 45.6373C116.452 45.646 116.414 45.6427 116.38 45.628C116.346 45.6134 116.318 45.588 116.3 45.5559C116.282 45.5237 116.274 45.4865 116.279 45.4499C116.289 45.3899 116.579 44.5299 116.649 44.3499ZM121.449 45.9999C121.458 45.963 121.48 45.9303 121.51 45.9069C121.539 45.8835 121.576 45.8708 121.614 45.8708C121.652 45.8708 121.689 45.8835 121.719 45.9069C121.749 45.9303 121.77 45.963 121.779 45.9999C121.824 46.2328 121.822 46.4725 121.772 46.7045C121.722 46.9365 121.626 47.156 121.489 47.3499C121.468 47.3635 121.445 47.3717 121.42 47.3738C121.395 47.3759 121.37 47.3718 121.347 47.3619C121.324 47.352 121.305 47.3366 121.289 47.317C121.274 47.2974 121.264 47.2744 121.259 47.2499C121.389 46.8459 121.453 46.424 121.449 45.9999ZM150.719 83.9999C148.069 84.2598 145.419 84.5499 142.769 84.8098C142.639 84.8098 142.569 84.6799 142.589 84.5799C144.809 74.1099 144.309 72.5799 144.779 72.5799C147.642 72.8409 150.528 72.6689 153.339 72.0699C153.367 72.0613 153.397 72.0605 153.425 72.0675C153.453 72.0745 153.479 72.0891 153.5 72.1096C153.52 72.1302 153.535 72.156 153.542 72.1842C153.549 72.2124 153.548 72.2421 153.539 72.2698C152.409 75.9998 150.919 83.9398 150.719 83.9999ZM153.139 72.4299C150.441 72.9907 147.676 73.1591 144.929 72.9299C144.439 76.7699 143.779 80.5798 142.999 84.3798L150.669 83.5699C151.242 79.8053 152.067 76.0836 153.139 72.4299ZM134.749 79.9999C134.579 79.9999 134.629 79.7299 134.749 79.7199C135.649 79.7199 139.299 79.6299 140.219 79.4999C140.389 79.4999 140.469 79.7398 140.289 79.7698C138.453 80.0042 136.599 80.0811 134.749 79.9999ZM140.909 76.5499C141.089 76.5499 141.079 76.8099 140.909 76.8299C138.753 76.9877 136.59 77.0311 134.429 76.9599C134.259 76.9599 134.319 76.6898 134.429 76.6799C134.999 76.6299 139.839 76.6299 140.909 76.5499ZM141.139 74.0799C139.097 74.3393 137.038 74.4529 134.979 74.4199C134.945 74.411 134.914 74.391 134.893 74.363C134.871 74.3349 134.859 74.3004 134.859 74.2649C134.859 74.2293 134.871 74.1948 134.893 74.1667C134.914 74.1387 134.945 74.1187 134.979 74.1099C135.979 74.1099 140.599 73.8299 141.099 73.8199C141.116 73.8172 141.134 73.818 141.151 73.8221C141.167 73.8262 141.183 73.8336 141.197 73.8438C141.211 73.854 141.223 73.8669 141.232 73.8816C141.241 73.8964 141.247 73.9128 141.249 73.9299C141.252 73.9469 141.251 73.9643 141.247 73.9811C141.243 73.9979 141.236 74.0137 141.225 74.0276C141.215 74.0416 141.202 74.0533 141.188 74.0623C141.173 74.0713 141.156 74.0772 141.139 74.0799ZM131.759 80.9299C129.04 81.0534 126.315 80.9262 123.619 80.5499C123.568 80.5453 123.519 80.5228 123.483 80.4862C123.446 80.4497 123.424 80.4014 123.419 80.3498C123.669 73.9198 122.929 73.0599 123.549 73.1499C126.269 73.5498 129.031 73.58 131.759 73.2399C131.829 73.2399 132.039 73.3399 132.039 73.4099C132.109 75.8499 132.039 78.2799 131.969 80.7199C131.969 80.7755 131.947 80.829 131.908 80.8683C131.868 80.9077 131.815 80.9299 131.759 80.9299ZM123.709 73.5799C123.869 75.7727 123.909 77.9726 123.829 80.1698C126.392 80.5013 128.977 80.6184 131.559 80.5198C131.629 78.2298 131.749 75.9399 131.789 73.6499C129.098 73.8166 126.398 73.7932 123.709 73.5799ZM139.339 85.1899C137.089 85.3299 127.009 85.2599 125.919 85.1099C125.779 85.1099 125.819 84.8699 125.919 84.8699C127.029 84.8199 137.069 84.9899 139.309 84.9699C139.479 84.9999 139.479 85.1799 139.339 85.1899ZM126.829 88.7398C126.795 88.7398 126.762 88.7262 126.737 88.7018C126.713 88.6774 126.699 88.6443 126.699 88.6099C126.699 88.5754 126.713 88.5423 126.737 88.5179C126.762 88.4935 126.795 88.4799 126.829 88.4799C133.059 88.4799 149.009 87.7199 150.749 87.5699C150.889 87.5699 150.889 87.7699 150.749 87.7899C144.549 88.4199 128.579 88.7999 126.829 88.7398ZM129.619 93.6499C129.439 93.6499 129.389 93.3599 129.569 93.3299C136.18 92.5096 142.829 92.0456 149.489 91.9399C149.524 91.9399 149.557 91.9535 149.581 91.9779C149.606 92.0023 149.619 92.0354 149.619 92.0699C149.619 92.1043 149.606 92.1374 149.581 92.1618C149.557 92.1862 149.524 92.1998 149.489 92.1998C144.319 92.3998 141.579 92.5199 129.619 93.6499ZM131.749 97.8798C131.717 97.8798 131.687 97.8672 131.664 97.8447C131.642 97.8222 131.629 97.7917 131.629 97.7599C131.629 97.728 131.642 97.6975 131.664 97.675C131.687 97.6525 131.717 97.6399 131.749 97.6399C132.869 97.5199 147.839 97.1898 149.119 97.1799C149.259 97.1799 149.259 97.3999 149.119 97.3999C144.609 97.5899 132.999 97.9998 131.749 97.8798ZM134.839 103.06C134.629 103.06 134.639 102.76 134.839 102.73C137.079 102.44 146.109 101.73 148.359 101.67C148.479 101.67 148.509 101.87 148.359 101.88C146.169 102.19 137.119 103 134.839 103.06ZM135.539 107.46C135.51 107.452 135.484 107.434 135.465 107.41C135.446 107.385 135.436 107.356 135.436 107.325C135.436 107.294 135.446 107.264 135.465 107.24C135.484 107.216 135.51 107.198 135.539 107.19C136.399 106.94 146.089 106.07 146.539 106.12C146.561 106.12 146.581 106.128 146.596 106.143C146.611 106.158 146.619 106.179 146.619 106.2C146.619 106.221 146.611 106.241 146.596 106.256C146.581 106.271 146.561 106.28 146.539 106.28C146.129 106.42 136.459 107.53 135.539 107.46ZM133.859 111.68C134.329 111.54 144.029 110.68 146.089 110.55C146.219 110.55 146.209 110.74 146.089 110.75C144.089 111 134.429 112.02 133.899 111.98C133.86 111.985 133.819 111.974 133.787 111.95C133.755 111.926 133.735 111.89 133.729 111.85C133.724 111.81 133.735 111.77 133.759 111.738C133.783 111.706 133.82 111.685 133.859 111.68ZM132.119 100.86C131.899 104.6 131.729 108.36 131.429 112.1C131.449 112.126 131.462 112.156 131.466 112.189C131.47 112.221 131.465 112.254 131.451 112.284C131.438 112.314 131.417 112.339 131.39 112.358C131.363 112.377 131.332 112.388 131.299 112.39C128.819 112.613 126.329 112.696 123.839 112.64C123.815 112.641 123.79 112.638 123.767 112.629C123.744 112.621 123.723 112.608 123.706 112.591C123.688 112.574 123.674 112.554 123.664 112.531C123.654 112.509 123.649 112.484 123.649 112.46L124.219 101.18C124.222 101.129 124.244 101.08 124.281 101.045C124.319 101.009 124.368 100.99 124.419 100.99L131.929 100.67C131.955 100.668 131.98 100.672 132.004 100.681C132.027 100.69 132.049 100.704 132.067 100.722C132.085 100.74 132.099 100.762 132.108 100.785C132.117 100.809 132.121 100.835 132.119 100.86ZM124.599 101.36C124.409 105 124.229 108.64 124.039 112.28C126.425 112.33 128.812 112.25 131.189 112.04C131.309 108.38 131.559 104.72 131.729 101.04L124.599 101.36ZM171.949 88.4599C174.049 88.5576 176.127 88.9308 178.129 89.5699C178.599 89.7199 180.219 90.0199 180.339 90.6499C180.459 91.2799 179.669 91.2599 179.249 91.2299C176.751 91.0563 174.288 90.5415 171.929 89.6998C171.699 89.6351 171.487 89.5189 171.309 89.3599C171.221 89.2775 171.161 89.1688 171.14 89.0498C171.118 88.9308 171.135 88.8081 171.189 88.6998C171.339 88.4698 171.669 88.4499 171.949 88.4599Z" fill="black" fill-opacity="0.36"/>
<path d="M15.2198 57.8099C17.7498 51.2099 33.1598 9.15994 34.6198 5.24994C34.7128 5.12421 34.8475 5.03561 34.9998 4.99994C37.8698 4.99994 55.4598 5.40994 57.0698 5.52994C57.2698 5.52994 72.3798 54.6399 73.2598 57.8199C73.2598 57.9199 73.0998 60.3699 73.0298 60.5799C72.9598 60.7899 72.7398 60.7499 72.7098 60.5799C72.6798 60.4099 72.8398 58.3399 72.8498 58.2399C72.1798 58.3099 71.4998 58.3699 70.8498 58.4199C71.0367 59.4548 70.9646 60.5198 70.6398 61.5199C70.6225 61.5512 70.5953 61.5757 70.5625 61.5897C70.5296 61.6037 70.493 61.6063 70.4585 61.5971C70.424 61.5879 70.3936 61.5675 70.3721 61.539C70.3506 61.5105 70.3392 61.4756 70.3398 61.4399C70.5853 60.4601 70.6598 59.4452 70.5598 58.4399C69.4898 58.5399 68.4098 58.6199 67.3298 58.6999C67.4641 59.8875 67.3167 61.0899 66.8998 62.2099C66.8831 62.239 66.8572 62.2617 66.8261 62.2743C66.7951 62.2869 66.7607 62.2887 66.7285 62.2795C66.6963 62.2703 66.668 62.2506 66.6483 62.2235C66.6286 62.1964 66.6186 62.1634 66.6198 62.1299C66.9144 61.0182 67.0458 59.8695 67.0098 58.7199C65.8898 58.7999 64.7598 58.8699 63.6298 58.9299V62.0799C63.6175 62.1152 63.5945 62.1458 63.5641 62.1675C63.5336 62.1892 63.4972 62.2008 63.4598 62.2008C63.4224 62.2008 63.386 62.1892 63.3555 62.1675C63.325 62.1458 63.3021 62.1152 63.2898 62.0799V58.9499L60.1198 59.1099C60.1198 59.5999 60.1198 61.9499 60.0498 62.1099C60.0384 62.1406 60.018 62.167 59.9911 62.1856C59.9643 62.2043 59.9324 62.2143 59.8998 62.2143C59.8671 62.2143 59.8352 62.2043 59.8084 62.1856C59.7816 62.167 59.7612 62.1406 59.7498 62.1099C59.7236 61.1092 59.7503 60.1078 59.8298 59.1099C58.5798 59.1599 57.3398 59.2099 56.0898 59.2399C56.0683 60.2438 55.9882 61.2455 55.8498 62.2399C55.8498 62.4099 55.5598 62.3599 55.5498 62.2399C55.5603 61.237 55.627 60.2354 55.7498 59.2399C54.4198 59.2399 53.0898 59.2999 51.7498 59.3099C51.7498 59.3099 51.8698 61.6799 51.8398 62.1299C51.8398 62.2899 51.5698 62.3499 51.5498 62.1299C51.4798 61.6799 51.3998 59.2999 51.4198 59.2699H48.1398V61.8099C48.1284 61.8406 48.108 61.867 48.0811 61.8856C48.0543 61.9043 48.0225 61.9143 47.9898 61.9143C47.9571 61.9143 47.9252 61.9043 47.8984 61.8856C47.8716 61.867 47.8512 61.8406 47.8398 61.8099C47.795 60.9639 47.795 60.116 47.8398 59.2699H47.4498C47.5898 66.3699 47.9098 79.45 47.9098 80.6799C48.3598 80.6799 74.3798 80.6099 76.3698 80.6799C78.8398 74.5999 82.9398 68.1699 88.3698 64.6799C93.3836 61.5889 99.17 59.9802 105.06 60.0399C105.06 60.0399 106.71 55.3199 106.88 54.6799C106.42 53.0244 106.135 51.3251 106.03 49.6099C105.715 46.3632 105.578 43.1017 105.62 39.8399C105.62 36.8399 105.55 34.3299 108.62 32.9799C108.726 32.7923 108.782 32.5805 108.782 32.3649C108.782 32.1494 108.726 31.9376 108.62 31.7499C109.385 31.784 110.129 32.0147 110.78 32.4199C110.931 31.6995 111.3 31.043 111.837 30.5387C112.373 30.0345 113.051 29.7068 113.78 29.5999C113.511 29.762 113.296 29.9985 113.159 30.2807C113.022 30.563 112.97 30.8788 113.01 31.1899C118.6 27.7899 120.01 34.5499 122.76 34.1899C123.422 34.015 123.989 33.5878 124.34 32.9999C124.599 33.4289 124.727 33.924 124.709 34.4248C124.692 34.9256 124.528 35.4104 124.24 35.8199C124.529 35.7409 124.8 35.6043 125.035 35.4183C125.27 35.2324 125.466 35.0008 125.61 34.7375C125.753 34.4742 125.843 34.1846 125.872 33.8861C125.901 33.5875 125.87 33.2861 125.78 32.9999C126.521 33.3515 127.134 33.9263 127.532 34.6436C127.93 35.361 128.094 36.1849 128 36.9999C127.892 37.6394 127.635 38.2444 127.249 38.7657C126.863 39.287 126.36 39.7099 125.78 39.9999C126.489 40.15 127.228 40.0584 127.88 39.7399C127.213 40.8444 126.201 41.6985 125 42.1699C124.883 44.8462 124.35 47.488 123.42 49.9999C123.906 51.5394 123.995 53.1767 123.68 54.7599C123 60.0899 118 62.1499 113 60.4299C113.37 61.2799 114.35 61.3399 115.2 61.5299C116.405 61.7933 117.594 62.1272 118.76 62.5299C121.073 63.4615 123.257 64.6847 125.26 66.1699C144.6 66.6799 154.35 66.0799 157.13 65.8699C155.06 64.4399 152.8 62.0499 153.56 59.6399C153.957 58.4722 154.571 57.3899 155.37 56.4499C158.8 52.2599 164.46 51.6999 169.08 49.8199C169.58 49.6099 174.44 47.1999 174.98 45.1299C175.072 44.8363 175.071 44.5214 174.978 44.228C174.885 43.9346 174.704 43.6769 174.46 43.4899C174.31 43.3999 174.35 43.1099 174.55 43.1299C175.606 43.2302 176.61 43.6361 177.44 44.298C178.269 44.9599 178.888 45.8491 179.22 46.8569C179.552 47.8648 179.583 48.9475 179.309 49.9728C179.036 50.998 178.47 51.9214 177.68 52.6299C176.12 54.1299 174.05 54.8699 172.23 55.9699C170.41 57.0699 168.59 58.6899 168.68 60.9699C168.77 63.2499 170.75 65.1499 172.76 66.0999C174.96 67.0999 177.4 67.4899 179.65 68.3999C183.81 70.09 184.96 73.3999 184.34 75.5399C184.01 76.5005 183.337 77.3053 182.45 77.7999C180.45 79.0099 177.55 78.7999 176.03 80.7999C175.648 81.2439 175.435 81.8088 175.43 82.3945C175.424 82.9802 175.626 83.5489 176 83.9999C176.72 84.8999 179.67 86.6899 180 86.9999C180.11 87.13 179.93 87.32 179.81 87.1899C178.415 86.5242 176.91 86.1208 175.37 85.9999C172.93 85.59 166.17 83.1299 165.01 81.0599C164.782 80.708 164.703 80.2804 164.789 79.8703C164.875 79.4602 165.12 79.1007 165.47 78.8699C165.93 78.5399 167.7 78.7199 168.55 77.4499C170.21 74.9899 168.05 72.21 166.06 70.7299C164.341 69.5748 162.508 68.5997 160.59 67.8199C158.43 73.8199 154.21 88.43 153.91 89.5799C154.65 89.68 160.34 90.5 161.14 90.5799C161.94 90.66 165.06 89.8599 165.59 90.2199C166.759 89.6583 168.085 89.5102 169.35 89.7999C169.601 88.891 169.936 88.0072 170.35 87.16C176.77 87.16 180.64 89.24 182.27 90.4999C182.33 90.4999 182.27 90.7199 182.27 90.7499C181.7 92.9399 178.95 102.75 178.56 103.84C178.56 103.9 171.79 106.14 166.56 101.31C166.56 101.31 166.8 99.7999 166.84 99.0999C165.959 99.0164 165.135 98.6298 164.507 98.006C163.88 97.3823 163.488 96.5602 163.4 95.6799C159.507 96.0728 155.656 96.8022 151.89 97.8599C151.34 100.27 149.38 110.6 148.89 113.33C149.872 113.332 150.836 113.598 151.68 114.1C151.79 114.17 176.43 115.33 178.68 116.48C180.632 117.338 182.236 118.833 183.23 120.72C184.085 122.678 184.396 124.83 184.13 126.95C183.59 131.95 180.64 136.25 178.26 140.56C176.37 144 176.77 150.29 176.67 151.71C178.91 150.52 184.49 151.2 184.52 151.22C184.665 151.352 184.753 151.535 184.766 151.731C184.779 151.927 184.716 152.12 184.59 152.27C182.191 155.343 179.377 158.069 176.23 160.37C176.08 164.62 176.14 175.95 176.23 177.37C176.23 178.03 176.54 180.55 176.48 181.15C176.447 181.627 176.294 182.088 176.035 182.49C175.776 182.892 175.42 183.222 175 183.45C173.59 184.15 173.61 183.91 144.76 183.32C144.76 183.81 144.7 184.32 144.68 184.77H142.31V188.6C142.38 188.54 142.99 188.25 143.22 188.34C144.445 188.824 145.623 189.42 146.74 190.12C150.03 192.12 150.46 193.8 150.46 193.83C150.484 194.019 150.435 194.209 150.323 194.363C150.212 194.517 150.046 194.623 149.86 194.66C146.86 195.24 136.73 194.84 135.73 194.66C135.15 194.54 135.09 194 135.12 193.42C135.129 193.254 135.194 193.096 135.305 192.973C135.416 192.849 135.566 192.767 135.73 192.74C135.15 191.51 135.96 190.01 136.73 188.91C137.5 187.81 137.18 185.26 137.17 185.04C136.23 185.11 135.29 185.18 134.34 185.27C134.289 184.525 134.176 183.786 134 183.06C127.974 182.956 121.962 182.465 116 181.59C116 181.59 115.26 177.59 115 175.59C113.46 175.59 101.3 175.59 96.7598 175.51C96.6298 176.67 95.8198 183.51 95.7598 183.51C91.3898 185.36 85.7598 185.79 81.0498 185.65C80.8598 185.65 71.1998 185.06 65.3498 184.07C62.5793 183.653 59.7814 183.446 56.9798 183.45C58.4598 184.39 63.9798 187.61 65.1598 188.4C65.1993 188.459 65.2205 188.529 65.2205 188.6C65.2205 188.671 65.1993 188.741 65.1598 188.8C59.7398 191.86 50.8398 191.57 43.9998 191.57C41.1498 191.57 37.2498 191.76 32.6698 189.76C31.6698 189.33 29.4798 188.26 29.9198 187.25C29.9898 187.13 39.9898 181.68 41.8598 180.55C42.7798 173.19 43.4198 165.99 41.9298 157.26C41.4998 154.74 39.5098 146.89 34.3298 136.26C31.4998 130.49 32.1598 123.9 35.0398 119.7C35.5353 118.937 36.1537 118.261 36.8698 117.7C37.9158 117.182 39.0415 116.844 40.1998 116.7C38.3298 108.7 36.8498 99.8899 36.9898 91.6999C36.8839 89.2251 37.4214 86.7651 38.5498 84.5599C39.7098 82.5599 41.8798 80.89 44.2798 81.0799C44.2198 75.0099 44.1398 60.8999 44.1398 59.2599H43.6198V62.0299C43.608 62.0629 43.5862 62.0914 43.5576 62.1115C43.529 62.1317 43.4948 62.1425 43.4598 62.1425C43.4248 62.1425 43.3906 62.1317 43.362 62.1115C43.3333 62.0914 43.3116 62.0629 43.2998 62.0299C43.2498 61.7899 43.2398 59.6799 43.2998 59.2499H40.4798C40.4702 60.0958 40.4134 60.9404 40.3098 61.7799C40.3017 61.8095 40.2841 61.8356 40.2597 61.8542C40.2353 61.8728 40.2055 61.8829 40.1748 61.8829C40.1441 61.8829 40.1143 61.8728 40.0899 61.8542C40.0655 61.8356 40.0479 61.8095 40.0398 61.7799C40.0536 60.9458 40.1271 60.1136 40.2598 59.2899L37.2598 59.1999C37.3712 60.1072 37.2075 61.0269 36.7898 61.8399C36.7198 61.9299 36.5398 61.9199 36.5498 61.7799C36.8138 60.9464 36.9322 60.0737 36.8998 59.1999L32.9998 58.9999C32.9998 58.9999 33.0698 61.1599 32.9998 61.3699C32.9875 61.4052 32.9645 61.4358 32.9341 61.4575C32.9036 61.4791 32.8672 61.4908 32.8298 61.4908C32.7924 61.4908 32.756 61.4791 32.7255 61.4575C32.695 61.4358 32.6721 61.4052 32.6598 61.3699V58.9899L29.7498 58.8699C30.0104 59.8442 29.9292 60.8783 29.5198 61.7999C29.4398 61.9699 29.1798 61.7999 29.2298 61.6799C29.5248 60.7668 29.5935 59.7955 29.4298 58.8499L25.8398 58.6699C25.8903 59.5626 25.8903 60.4573 25.8398 61.3499C25.8317 61.3795 25.8141 61.4056 25.7897 61.4242C25.7653 61.4428 25.7355 61.4529 25.7048 61.4529C25.6741 61.4529 25.6443 61.4428 25.6199 61.4242C25.5955 61.4056 25.5779 61.3795 25.5698 61.3499C25.5194 60.4506 25.5194 59.5492 25.5698 58.6499L22.4998 58.4899C22.4998 58.8799 22.4998 60.7499 22.3998 60.9499C22.3917 60.9795 22.3741 61.0056 22.3497 61.0242C22.3253 61.0428 22.2955 61.0529 22.2648 61.0529C22.2341 61.0529 22.2043 61.0428 22.1799 61.0242C22.1555 61.0056 22.1379 60.9795 22.1298 60.9499C22.1183 60.1223 22.1483 59.2946 22.2198 58.4699L19.0498 58.2799C19.0498 58.6599 18.8798 60.2799 18.7898 60.6499C18.781 60.6844 18.761 60.7149 18.7329 60.7367C18.7048 60.7584 18.6703 60.7703 18.6348 60.7703C18.5993 60.7703 18.5648 60.7584 18.5367 60.7367C18.5086 60.7149 18.4886 60.6844 18.4798 60.6499C18.4798 60.2399 18.6998 58.6499 18.7598 58.3099L15.5898 58.1099C15.9354 58.7936 16.0138 59.5816 15.8098 60.3199C15.8098 60.4199 15.5298 60.3999 15.5598 60.3199C15.683 59.4679 15.5653 58.5985 15.2198 57.8099ZM63.2898 58.6399C66.4898 58.4699 69.6798 58.2399 72.8698 57.9699C72.7498 57.7699 56.8698 5.63994 56.8698 5.73994H52.6798C53.9198 12.6199 62.4098 54.7999 63.2898 58.6399ZM62.7698 58.6399C61.2998 51.7999 52.3598 5.63994 52.3698 5.63994H47.6098C47.8998 9.15994 49.8298 55.0999 49.9998 58.9999C53.4298 58.9999 61.9098 58.7099 62.7698 58.6699V58.6399ZM47.7698 81.1399V83.5799C48.7809 85.4272 49.6793 87.334 50.4598 89.2899C53.2998 96.1199 54.7498 106.77 53.1098 116.67C81.3698 116.76 79.1798 116.74 79.1698 116.67C79.0898 115.67 79.3198 110.43 79.3298 110.41C77.9664 109.099 76.8844 107.523 76.1498 105.78C73.7498 100.06 75.2798 93.7799 76.7798 87.9499C75.9798 87.5899 75.1898 87.1999 74.4198 86.7699C74.2998 86.6999 74.2998 86.3899 74.3198 86.3199C74.7978 84.6245 75.3653 82.9555 76.0198 81.3199C72.4198 81.2199 47.7998 81.2099 47.7698 81.1699V81.1399ZM47.6798 84.2499L48.2198 116.66H52.5798C53.7736 109.985 53.6343 103.14 52.1698 96.5199C51.0598 91.0999 49.9998 88.8799 47.6798 84.2799V84.2499ZM97.8798 161.48C105.88 161.48 127.05 161.27 129.69 161.24C128.69 155.15 126.81 140.57 126.98 139.24C124.98 139.24 114.8 139.12 111.7 139.13C106.779 139.686 101.808 139.636 96.8998 138.98C97.8598 143.63 98.6698 147.62 97.8798 161.51V161.48ZM117.4 111.24C117.8 109.24 119.04 102.51 119.16 101.24C118.712 101.205 118.262 101.272 117.843 101.435C117.424 101.597 117.047 101.852 116.74 102.18C115.64 102.98 104.01 109.94 102.86 110.56C100.514 111.828 98.0357 112.834 95.4698 113.56C89.3198 115.28 84.3798 115.03 79.6598 110.72C79.6598 111.07 79.5298 116.57 79.3998 116.72H82.3998C84.2294 116.856 86.0041 117.406 87.5894 118.33C89.1747 119.253 90.529 120.526 91.5498 122.05C95.2898 119.72 108.21 113.85 117.4 111.24ZM116.69 117.36H117.69C117.75 117.14 120.15 107.15 120.57 104.88C120.8 103.69 120.97 102.49 121.22 101.3C120.65 101.335 120.079 101.335 119.51 101.3C119.09 105.69 117 116.38 116.69 117.36ZM84.9998 113.51C89.5598 115.13 95.7998 113.4 100.22 111.46C102.48 110.46 104.46 108.99 106.63 107.82C112.63 104.61 117.41 101.28 117.9 101.08C119.5 100.43 121.01 102.08 125.07 99.2199C125.17 99.1499 125.38 99.02 125.35 98.8799C125.32 98.7399 124.95 98.77 124.81 98.7899C124.17 98.8909 123.548 99.0793 122.96 99.3499C122.79 99.42 122.63 99.1699 122.81 99.0899C123.837 98.5901 124.821 98.0047 125.75 97.3399C125.9 97.1099 125.75 96.8999 125.5 96.9199C125.41 96.9199 123.27 97.92 122.72 98.1399C122.55 98.2199 122.41 97.9799 122.57 97.8899C123.656 97.3949 124.714 96.8407 125.74 96.2299C126.18 95.7999 125.98 95.3399 125.63 95.3399C125.55 95.3999 123.63 96.17 122.76 96.4599C122.51 96.5499 122.41 96.16 122.65 96.0699C123.28 95.84 125.07 95.2099 125.3 95.0699C125.53 94.9299 125.7 94.61 125.3 94.5099C124.9 94.41 122.3 94.66 121.6 94.7099C121.568 94.7114 121.536 94.7051 121.506 94.6916C121.477 94.678 121.452 94.6576 121.432 94.6321C121.412 94.6066 121.399 94.5767 121.394 94.545C121.388 94.5133 121.39 94.4807 121.4 94.4499C121.579 94.0951 121.639 93.6916 121.57 93.2999C121.45 92.9399 121.27 93.18 121.11 93.3999C120.77 93.85 119.23 96.25 117.85 96.6099C112.57 98 107 98.14 102 98.7199C100.76 98.86 97.1998 99.4799 96.6598 99.6299C96.2898 99.7399 95.0998 100.11 95.1198 99.7199C95.2098 98.4699 96.0598 93.4399 96.1898 92.1499C93.7898 92.03 79.2898 89.7899 77.1098 88.1499C75.8198 93.0799 74.5198 98.27 75.7198 103.36C76.2828 105.698 77.4293 107.855 79.0522 109.63C80.675 111.405 82.7213 112.74 84.9998 113.51ZM115.68 51.7099C116.16 52.9199 117.68 52.5399 118.09 52.2999C118.124 52.2787 118.149 52.2447 118.158 52.2053C118.168 52.1659 118.161 52.1244 118.14 52.0899C118.119 52.0555 118.085 52.0308 118.045 52.0215C118.006 52.0121 117.964 52.0187 117.93 52.0399C117.64 52.1999 116.38 52.4299 115.93 51.5499C115.83 51.4299 115.64 51.6099 115.68 51.7099ZM116.62 48.2099C116.711 48.4684 116.863 48.7011 117.062 48.8886C117.262 49.0762 117.504 49.2129 117.768 49.2874C118.031 49.3619 118.309 49.372 118.577 49.3167C118.846 49.2615 119.097 49.1425 119.31 48.9699C119.055 47.5095 119.124 46.0112 119.51 44.5799C119.51 44.3999 119.81 44.4799 119.78 44.6599C119.56 46.0148 119.49 47.3897 119.57 48.7599C120.2 48.8594 120.786 49.1493 121.247 49.5908C121.708 50.0323 122.023 50.6043 122.15 51.2299C122.15 51.2299 123.48 49.8799 124.1 46.5499C124.36 45.1299 124.65 43.7099 124.77 42.2699C121.68 43.2699 117.38 41.9499 113.5 38.7399C113.014 39.4721 112.367 40.0842 111.61 40.5299C111.101 40.2835 110.516 40.2483 109.981 40.432C109.446 40.6158 109.006 41.0036 108.757 41.5108C108.507 42.0179 108.468 42.6033 108.649 43.139C108.829 43.6747 109.214 44.1172 109.72 44.3699C109.51 45.8499 109.58 48.6999 111.36 49.1399C112.77 49.4899 113.78 48.5899 116.62 48.2099ZM112.62 60.2099C110.209 59.2532 108.217 57.4703 107 55.1799C106.86 55.6899 105.32 60.2899 105.17 60.5499C105.407 61.4802 105.864 62.3399 106.503 63.0568C107.142 63.7737 107.943 64.3269 108.84 64.6699C114.06 67.0199 116.15 63.8299 114.65 61.8499C114.64 61.8399 112.84 61.5699 112.59 60.2599L112.62 60.2099ZM115.14 61.8699C116.14 63.0399 115.44 65.3199 113.14 65.8099C110.84 66.2999 105.51 64.4999 104.78 60.5399C104.78 60.4499 93.8798 61.4599 89.3898 64.5399C78.6698 71.7999 75.3898 84.5399 74.8298 86.4299C81.2598 90.6199 97.0698 91.6899 98.8298 91.7999C99.8215 87.2711 100.108 82.6163 99.6798 77.9999C99.6798 77.8799 99.8498 77.8899 99.8598 77.9999C100.42 82.6917 100.19 87.4441 99.1798 92.0599C99.1675 92.1015 99.1426 92.1382 99.1086 92.1651C99.0746 92.1919 99.0331 92.2076 98.9898 92.2099C98.1898 92.2099 97.3798 92.21 96.5798 92.1499C96.5098 93.39 95.6798 98.2999 95.5798 99.5299C97.5732 98.9814 99.6059 98.5869 101.66 98.3499C115.9 96.84 118.54 96.7599 119.97 94.4699C119.87 90.74 118.88 81.74 114.08 65.8699C114.072 65.8401 114.072 65.8091 114.078 65.779C114.084 65.7488 114.096 65.7204 114.114 65.6956C114.132 65.6708 114.156 65.6503 114.182 65.6355C114.209 65.6207 114.239 65.612 114.27 65.6099C117.79 65.8299 121.313 66.0166 124.84 66.1699C124.4 65.9999 119.36 62.6699 115.11 61.9199L115.14 61.8699ZM114.48 65.9999C119.8 83.9999 120.22 92.18 120.18 94.0799C120.25 93.9799 120.79 92.5499 121.49 92.6399C121.17 86.1399 119.92 80.2299 116.87 68.0099C116.87 67.8899 116.93 67.7299 117.07 67.7499C130.506 69.0542 144.037 69.0374 157.47 67.6999C157.697 67.3022 157.901 66.8915 158.08 66.4699C157.95 66.3899 157.82 66.32 157.69 66.2299C152.2 66.7399 136 67.1999 114.48 65.9999ZM157.95 67.6999L159.82 67.4399C159.53 67.2999 158.6 66.8099 158.42 66.7099C158.27 66.9999 158.12 67.3799 157.95 67.6999ZM164.57 69.2299C166.66 70.3999 168.96 72.1599 169.48 74.6399C169.606 75.2215 169.604 75.8238 169.473 76.4043C169.341 76.9849 169.084 77.5295 168.72 77.9999C167.72 79.2899 166.72 78.5099 165.72 79.2799C164.72 80.0499 165.36 80.9999 166 81.5899C168.261 83.1339 170.756 84.3023 173.39 85.0499C175.21 85.59 177.03 85.8699 178.7 86.4199C177.27 85.4799 175.48 84.7799 175.1 82.9899C175.018 82.5037 175.057 82.0047 175.214 81.5373C175.371 81.0698 175.641 80.6483 176 80.3099C176.841 79.5272 177.877 78.9849 179 78.7399C181.07 78.1099 183.88 77.4399 184.13 74.8399C184.161 73.7383 183.882 72.65 183.323 71.7002C182.764 70.7503 181.948 69.9773 180.97 69.4699C177.12 67.2499 171.46 67.6299 169.03 63.3199C168.514 62.4732 168.283 61.4838 168.369 60.4962C168.455 59.5085 168.855 58.5743 169.51 57.8299C172.27 54.4099 178.12 54.0799 179.04 49.6199C179.313 48.309 179.058 46.9432 178.329 45.8196C177.601 44.696 176.458 43.9054 175.15 43.6199C175.351 43.9644 175.457 44.3561 175.457 44.7549C175.457 45.1538 175.351 45.5455 175.15 45.8899C174.496 46.9253 173.618 47.8002 172.58 48.4499C166.76 52.4999 158.04 51.5199 154.48 58.6499C153.4 60.8099 153.81 61.3699 155.05 63.3099C156.73 66.0499 161.58 67.5599 164.57 69.2299ZM167 98.7999C167.022 98.8006 167.045 98.8065 167.065 98.817C167.085 98.8276 167.102 98.8426 167.116 98.8609C167.129 98.8792 167.139 98.9003 167.143 98.9227C167.147 98.945 167.146 98.968 167.14 98.9899C166.94 99.6899 166.97 100.45 166.79 101.16C168.379 102.451 170.252 103.347 172.255 103.773C174.257 104.199 176.333 104.143 178.31 103.61L181.87 90.6099C178.4 88.495 174.391 87.432 170.33 87.5499C170.175 88.4382 169.913 89.3045 169.55 90.1299C168.355 89.8535 167.105 89.9405 165.96 90.3799C166.463 90.8321 166.906 91.3462 167.28 91.91C167.82 91.82 168.44 91.5 168.99 91.7199C169.54 91.9399 169.5 92.5499 169.27 93.0199C168.611 94.3976 168.182 95.8738 168 97.3899C168 97.59 167.66 97.59 167.68 97.3899C167.675 97.3067 167.675 97.2232 167.68 97.1399C166.992 97.238 166.292 97.1869 165.626 96.9902C164.96 96.7935 164.344 96.4558 163.82 95.9999C163.965 96.7531 164.355 97.4368 164.931 97.9436C165.507 98.4505 166.234 98.7517 167 98.7999ZM163.86 95.5499C164.95 97.15 167.22 96.9399 167.68 96.8999C167.918 95.5147 168.345 94.1687 168.95 92.8999C169.11 92.6199 169.25 92.21 168.88 92.0399C168.51 91.8699 167.88 92.16 167.41 92.1399C167.54 92.38 167.72 92.7399 167.56 92.9899C167.18 93.5799 165.81 92.7 165.3 92.2099C165.223 92.2082 165.148 92.2256 165.079 92.2605C165.011 92.2954 164.953 92.3468 164.91 92.41C164.42 93.15 165.65 93.81 166.15 93.9799C166.174 93.9799 166.197 93.9894 166.213 94.0063C166.23 94.0232 166.24 94.0461 166.24 94.0699C166.24 94.0938 166.23 94.1167 166.213 94.1336C166.197 94.1505 166.174 94.16 166.15 94.16C165.845 94.1051 165.554 93.988 165.296 93.816C165.038 93.644 164.818 93.4206 164.65 93.16C164.552 93.2174 164.467 93.2939 164.4 93.385C164.332 93.4762 164.284 93.58 164.258 93.6902C164.232 93.8005 164.228 93.9148 164.248 94.0265C164.267 94.1382 164.308 94.2448 164.37 94.3399C164.577 94.5959 164.835 94.8061 165.128 94.9576C165.42 95.109 165.741 95.1983 166.07 95.2199C166.21 95.2199 166.15 95.46 166.01 95.4399C165.636 95.4236 165.271 95.3257 164.939 95.1529C164.607 94.9801 164.317 94.7368 164.09 94.4399C163.996 94.4926 163.914 94.5654 163.852 94.6532C163.789 94.741 163.747 94.8416 163.728 94.9477C163.708 95.0538 163.713 95.1629 163.741 95.267C163.769 95.3712 163.82 95.4678 163.89 95.5499H163.86ZM163.44 95.3299C163.44 95.3299 163.23 94.4699 163.92 94.2099C163.837 93.9377 163.862 93.6442 163.99 93.3899C164.112 93.1846 164.293 93.0209 164.51 92.9199C164.487 92.7864 164.495 92.6495 164.533 92.5195C164.571 92.3895 164.638 92.27 164.73 92.1699C165.05 91.8199 165.14 92.1 164.93 91.7899C164.82 91.64 165.06 91.4599 165.18 91.5899C165.566 91.9554 165.981 92.2897 166.42 92.5899C166.57 92.6799 167.28 93.06 167.28 92.7199C167.03 92.0954 166.683 91.5147 166.25 90.9999C165.997 90.7351 165.663 90.5619 165.301 90.5076C164.939 90.4533 164.569 90.521 164.25 90.6999C163.681 90.8989 163.082 91.0004 162.48 90.9999C161.13 90.9999 154.53 90 153.81 89.8699C153.143 92.41 152.523 94.9599 151.95 97.5199C155.74 96.5472 159.587 95.8157 163.47 95.3299H163.44ZM160.1 67.6899C154.71 68.5299 139.51 70.4299 117.3 68.2199C121.6 83.81 121.85 92.8699 121.84 92.8999C121.952 93.1105 122.017 93.3429 122.031 93.5812C122.045 93.8194 122.007 94.0578 121.92 94.2799C122.71 94.2199 125.58 93.7 125.92 94.4399C125.979 94.5504 126.004 94.6759 125.992 94.8006C125.979 94.9253 125.93 95.0435 125.85 95.1399C126.41 95.2499 126.28 95.92 126.08 96.2199C125.968 96.38 125.825 96.5161 125.66 96.6199C125.763 96.6181 125.864 96.6504 125.947 96.7119C126.031 96.7734 126.091 96.8606 126.12 96.9599C126.33 97.59 125.33 98.09 124.57 98.5299C124.57 98.5299 125.57 98.3599 125.65 98.7699C125.73 99.1799 125.3 99.44 125.04 99.6199C123.947 100.349 122.741 100.889 121.47 101.22C120.656 106.652 119.497 112.026 118 117.31C122.5 117.13 146.58 116.82 148.37 114.43C148.77 111.71 150.85 95.0499 160.13 67.6899H160.1ZM149 140.23C148 140.14 147 140.07 146.07 140C146.07 140.2 145.87 159.08 145.85 161.14C158.34 161.04 156.73 161.14 159.02 161.14C159.08 155.22 159.13 149.83 159.15 148.59C155.533 146.099 152.138 143.302 149 140.23ZM152.52 114.71C153.35 115.46 160.2 124.88 162.07 127.96C164.54 116.58 172.83 116.04 173.07 115.96C167.1 115.76 153.41 114.77 152.55 114.71H152.52ZM177.37 141.39C178.69 138.32 181 135 182.5 131.33C184.03 127.45 184.5 122.33 181.5 119.01C178.91 116.12 173.94 115.3 169.64 117.91C165.8 120.24 163.64 124.34 162.45 128.56C162.78 129.11 173.31 144.68 174.18 145.94C174.18 145.99 172.36 147.79 171.86 148.26C172.33 148.95 174.3 151.76 174.86 152.47C175.3 152.233 175.758 152.033 176.23 151.87C176.23 151.87 176.09 144.34 177.37 141.39ZM174.69 152.66C174.15 151.95 172.1 149.18 171.64 148.49C170.39 149.67 169.15 150.85 167.93 152.06C168.862 152.879 169.713 153.786 170.47 154.77C171.52 156.42 170.79 158.48 173.05 160.06C173.21 159.92 174.48 158.74 174.86 158.33C174.963 158.219 175.031 158.081 175.058 157.932C175.085 157.783 175.068 157.63 175.01 157.49C174.79 157 173.71 154.59 174.69 152.66ZM174.3 183.28C174.813 183.133 175.265 182.824 175.588 182.398C175.91 181.973 176.087 181.454 176.09 180.92C176.18 178.98 175.25 178.81 175.81 160.68C174.97 161.28 174.14 161.82 173.34 162.3C173.206 162.388 173.047 162.431 172.887 162.422C172.726 162.413 172.573 162.352 172.45 162.25C172.294 162.116 172.15 161.969 172.02 161.81C171.96 161.726 171.917 161.631 171.894 161.53C171.872 161.429 171.87 161.324 171.888 161.222C171.907 161.121 171.946 161.024 172.003 160.937C172.06 160.851 172.134 160.777 172.22 160.72L172.87 160.21C170.62 158.76 171.2 156.63 170.28 155.09C169.525 154.065 168.652 153.132 167.68 152.31L166.56 153.45C166.56 153.45 163.49 151.55 159.56 148.81C159.49 152.04 159.14 181.81 159 183.23C161.67 183.28 173.31 183.57 174.3 183.28ZM159.05 161.28C153.6 161.38 152.19 161.42 145.88 161.47C145.82 167.05 145.75 170.91 145.4 175.57C145.4 175.57 154.4 175.84 158.89 176.1C158.94 172.61 159 166.73 159 161.28H159.05ZM158.75 183.23C158.75 181.99 158.86 177.43 158.88 176.4C154.38 176.187 149.876 176.027 145.37 175.92C145.37 176.46 144.88 181.17 144.76 182.98L158.75 183.23ZM136.11 192.77C137.172 192.825 138.237 192.825 139.3 192.77C139.445 192.753 139.582 192.693 139.694 192.599C139.806 192.505 139.888 192.38 139.93 192.24C140.316 190.946 141.062 189.788 142.08 188.9C142.01 187.81 141.97 185.12 141.97 184.9C140.483 184.94 138.993 185.01 137.5 185.11C137.559 186.262 137.482 187.416 137.27 188.55C136.82 189.82 135.31 191.28 136.11 192.77ZM136.33 129C140.48 129 145.24 133.26 146.06 139.59L148.65 139.79C147.657 138.766 146.754 137.658 145.95 136.48C144.59 131.59 139.9 128.14 135.95 128.07C133.89 128.134 131.929 128.965 130.45 130.4C129.101 131.705 128.029 133.27 127.3 135C124.65 136.46 119.71 137.73 114.22 138.7C116 138.7 124.56 138.78 127.04 138.83C127.94 133.1 132.36 129.08 136.33 129ZM116.17 181.28C121.71 182.12 133.57 182.7 133.91 182.71C133.4 180.41 132.91 178.07 132.4 175.71C126.673 175.67 120.946 175.647 115.22 175.64C115.54 177.54 115.85 179.43 116.17 181.32V181.28ZM132.32 175.28C131.42 170.89 129.75 161.6 129.74 161.54L97.8598 161.87C97.6498 166.28 97.2298 170.69 96.7398 175.08C102.78 175.24 128.57 175.32 132.32 175.36V175.28ZM95.2598 183.28C96.1598 175.47 96.9498 168.46 97.2598 160.58C97.7898 147.4 96.5498 142.93 96.4598 139.41C96.2698 131.32 92.4598 119.53 84.7298 117.53C83.3955 117.117 81.9863 117.004 80.6032 117.199C79.2201 117.394 77.8974 117.893 76.7298 118.66C75.8741 119.391 75.1296 120.244 74.5198 121.19C73.2254 123.164 72.3838 125.4 72.0553 127.737C71.7268 130.075 71.9196 132.456 72.6198 134.71C73.9198 138.93 77.2498 143.52 79.0798 148.29C82.5598 157.4 82.2198 178.36 80.5598 185.29C85.5329 185.481 90.5026 184.832 95.2598 183.37V183.28ZM80.1498 185.23C81.3698 180.13 81.3298 173.73 81.2798 168.4C81.3473 162.558 80.7331 156.729 79.4498 151.03C77.5198 143.31 71.5098 137.97 71.4498 130.09C71.3977 126.523 72.5341 123.04 74.6798 120.19C75.7065 118.679 77.2381 117.583 78.9998 117.1H48.2198C48.2898 121.55 48.8498 178.2 48.8498 178.21L56.2198 183.08C64.3198 183.19 72.0898 185 80.1498 185.32V185.23ZM35.9398 119.3C33.0498 122.95 31.8898 128.61 34.5298 135.57C36.7398 141.44 46.4398 154.95 42.0298 180.39C42.0998 180.39 44.5498 178.79 45.7298 178.13C45.7298 178.13 44.7298 122.36 44.6298 117.13C38.1898 116.74 36.4898 118.7 35.9398 119.39V119.3ZM38.9398 84.4499C37.7476 86.6157 37.1831 89.071 37.3098 91.5399C37.1798 99.8599 38.6598 108.54 40.5398 116.65C41.3398 116.56 44.0798 116.52 44.6398 116.55C44.6398 114.29 44.2298 82.96 44.2098 81.3299C43.1301 81.3749 42.0794 81.6929 41.156 82.2543C40.2326 82.8157 39.4666 83.6021 38.9298 84.5399L38.9398 84.4499ZM46.2398 178.13C46.2898 178.58 30.7498 187.31 30.2398 187.53C31.3998 189.37 37.2398 190.88 39.5098 191.1C40.9098 191.24 53.6698 191.1 56.4398 190.85C59.3481 190.612 62.19 189.854 64.8298 188.61C63.7598 188.07 48.4898 178.52 48.4798 178.13C48.3098 170.76 47.1298 63.7199 47.0898 59.2499H44.3598C44.4198 68.1199 46.1198 177.32 46.2298 178.22L46.2398 178.13ZM49.6098 58.9999C49.3798 52.0699 47.3598 5.58994 47.3998 5.56994L43.2498 5.48994C42.7998 8.90994 36.2498 58.7699 36.2498 58.7999C36.8398 58.8299 47.5598 58.9999 49.6098 58.9999ZM35.8798 58.7799C35.8798 58.7799 42.2998 9.36994 42.9998 5.49994L38.6398 5.41994C37.7798 8.87994 25.2698 54.3699 24.2498 58.2299C24.2398 58.2299 31.9998 58.6699 35.8798 58.7999V58.7799ZM23.8198 58.1999C23.8198 58.1999 37.8198 7.27994 38.3798 5.38994L34.9398 5.32994C32.5598 12.3999 17.1098 54.1199 15.7398 57.6599C18.4265 57.8866 21.1198 58.0733 23.8198 58.2199V58.1999Z" fill="black" fill-opacity="0.36"/>
</svg>
